<svg width="169" height="152" viewBox="0 0 169 152" fill="none" xmlns="http://www.w3.org/2000/svg">
<g opacity="0.2" clipPaths="url(#clip0_11773_22455)" filter="url(#filter0_f_11773_22455)">
<mask id="mask0_11773_22455" style="mask-type:luminance" maskUnits="userSpaceOnUse" x="6" y="-23" width="171" height="169">
<path d="M6.12643 145.856H177V-22.0373H6.12643V145.856Z" fill="white"/>
</mask>
<g mask="url(#mask0_11773_22455)">
<path d="M6.12548 5.94326C6.12548 -9.50888 18.8774 -22.0383 34.6047 -22.0383C50.3331 -22.0383 63.083 -9.50888 63.083 5.94326C63.083 21.3984 50.3331 33.9253 34.6047 33.9253C18.8774 33.9253 6.12548 21.3984 6.12548 5.94326Z" fill="#F6F7F9"/>
<path d="M41.7242 72.4031C41.7242 58.8798 52.8807 47.9183 66.6439 47.9183C80.4073 47.9183 91.5635 58.8798 91.5635 72.4031C91.5635 85.9249 80.4073 96.8879 66.6439 96.8879C52.8807 96.8879 41.7242 85.9249 41.7242 72.4031Z" fill="#F6F7F9"/>
<path d="M91.5629 19.937C91.5629 -3.24518 110.689 -22.0373 134.282 -22.0373C157.874 -22.0373 177 -3.24518 177 19.937C177 43.1181 157.874 61.9092 134.282 61.9092C110.689 61.9092 91.5629 43.1181 91.5629 19.937Z" fill="#F6F7F9"/>
<path d="M105.8 110.877C105.8 91.5592 121.739 75.8983 141.4 75.8983C161.061 75.8983 177 91.5592 177 110.877C177 130.195 161.061 145.856 141.4 145.856C121.739 145.856 105.8 130.195 105.8 110.877Z" fill="#F6F7F9"/>
<path d="M6.12534 124.87C6.12534 113.279 15.6893 103.883 27.4865 103.883C39.2828 103.883 48.8447 113.279 48.8447 124.87C48.8447 136.46 39.2828 145.856 27.4865 145.856C15.6893 145.856 6.12534 136.46 6.12534 124.87Z" fill="#F6F7F9"/>
<path d="M13.2472 54.9153C13.2472 51.0518 16.4342 47.9199 20.3663 47.9199C24.2983 47.9199 27.4863 51.0518 27.4863 54.9153C27.4863 58.7774 24.2983 61.9092 20.3663 61.9092C16.4342 61.9092 13.2472 58.7774 13.2472 54.9153Z" fill="#F6F7F9"/>
<path d="M66.6433 121.371C66.6433 115.575 71.4247 110.878 77.3238 110.878C83.2208 110.878 88.002 115.575 88.002 121.371C88.002 127.166 83.2208 131.864 77.3238 131.864C71.4247 131.864 66.6433 127.166 66.6433 121.371Z" fill="#F6F7F9"/>
</g>
</g>
<defs>
<filter id="filter0_f_11773_22455" x="0" y="-29" width="183" height="181" filterUnits="userSpaceOnUse" color-interpolation-filters="sRGB">
<feFlood flood-opacity="0" result="BackgroundImageFix"/>
<feBlend mode="normal" in="SourceGraphic" in2="BackgroundImageFix" result="shape"/>
<feGaussianBlur stdDeviation="3" result="effect1_foregroundBlur_11773_22455"/>
</filter>
<clipPath id="clip0_11773_22455">
<rect width="171" height="169" fill="white" transform="matrix(-1 0 0 -1 177 146)"/>
</clipPath>
</defs>
</svg>
