<svg width="21" height="21" viewBox="0 0 21 21" fill="none" xmlns="http://www.w3.org/2000/svg">
<path d="M4.09833 17.6134C5.19667 18.8334 6.965 18.8334 10.5 18.8334C14.0358 18.8334 15.8033 18.8334 16.9017 17.6125C18 16.3934 18 14.4284 18 10.5C18 6.57169 18 4.60752 16.9017 3.38669C15.8033 2.16669 14.035 2.16669 10.5 2.16669C6.96417 2.16669 5.19667 2.16669 4.09833 3.38669C3 4.60835 3 6.57169 3 10.5C3 14.4284 3 16.3934 4.09833 17.6134Z" stroke="currentColor" stroke-width="1.5"/>
<path d="M6.3335 7.16667C6.3335 6.77917 6.3335 6.58583 6.376 6.42667C6.43282 6.21489 6.54436 6.02179 6.6994 5.86674C6.85445 5.71169 7.04755 5.60016 7.25933 5.54333C7.42016 5.5 7.6135 5.5 8.00016 5.5H13.0002C13.3877 5.5 13.581 5.5 13.7402 5.5425C13.9519 5.59933 14.145 5.71086 14.3001 5.86591C14.4551 6.02095 14.5667 6.21406 14.6235 6.42583C14.6668 6.58667 14.6668 6.78 14.6668 7.16667C14.6668 7.55333 14.6668 7.7475 14.6243 7.90667C14.5675 8.11844 14.456 8.31155 14.3009 8.46659C14.1459 8.62164 13.9528 8.73317 13.741 8.79C13.581 8.83333 13.3868 8.83333 13.0002 8.83333H8.00016C7.61266 8.83333 7.41933 8.83333 7.26016 8.79083C7.04839 8.73401 6.85528 8.62247 6.70024 8.46743C6.54519 8.31238 6.43366 8.11928 6.37683 7.9075C6.3335 7.74667 6.3335 7.55333 6.3335 7.16667Z" stroke="currentColor" stroke-width="1.5"/>
<path d="M7.16683 12.1667C7.62707 12.1667 8.00016 11.7936 8.00016 11.3333C8.00016 10.8731 7.62707 10.5 7.16683 10.5C6.70659 10.5 6.3335 10.8731 6.3335 11.3333C6.3335 11.7936 6.70659 12.1667 7.16683 12.1667Z" fill="currentColor"/>
<path d="M7.16683 15.5C7.62707 15.5 8.00016 15.1269 8.00016 14.6667C8.00016 14.2065 7.62707 13.8334 7.16683 13.8334C6.70659 13.8334 6.3335 14.2065 6.3335 14.6667C6.3335 15.1269 6.70659 15.5 7.16683 15.5Z" fill="currentColor"/>
<path d="M10.4998 12.1667C10.9601 12.1667 11.3332 11.7936 11.3332 11.3333C11.3332 10.8731 10.9601 10.5 10.4998 10.5C10.0396 10.5 9.6665 10.8731 9.6665 11.3333C9.6665 11.7936 10.0396 12.1667 10.4998 12.1667Z" fill="currentColor"/>
<path d="M10.4998 15.5C10.9601 15.5 11.3332 15.1269 11.3332 14.6667C11.3332 14.2065 10.9601 13.8334 10.4998 13.8334C10.0396 13.8334 9.6665 14.2065 9.6665 14.6667C9.6665 15.1269 10.0396 15.5 10.4998 15.5Z" fill="currentColor"/>
<path d="M13.8333 12.1667C14.2936 12.1667 14.6667 11.7936 14.6667 11.3333C14.6667 10.8731 14.2936 10.5 13.8333 10.5C13.3731 10.5 13 10.8731 13 11.3333C13 11.7936 13.3731 12.1667 13.8333 12.1667Z" fill="currentColor"/>
<path d="M13.8333 15.5C14.2936 15.5 14.6667 15.1269 14.6667 14.6667C14.6667 14.2065 14.2936 13.8334 13.8333 13.8334C13.3731 13.8334 13 14.2065 13 14.6667C13 15.1269 13.3731 15.5 13.8333 15.5Z" fill="currentColor"/>
</svg>
