<svg width="24" height="24" viewBox="0 0 24 24" fill="none" xmlns="http://www.w3.org/2000/svg">
<path opacity="0.3" d="M20.5355 20.5355C22 19.0711 22 16.714 22 12C22 7.28595 22 4.92893 20.5355 3.46447C19.0711 2 16.714 2 12 2C7.28595 2 4.92893 2 3.46447 3.46447C2 4.92893 2 7.28595 2 12C2 16.714 2 19.0711 3.46447 20.5355C4.92893 22 7.28595 22 12 22C16.714 22 19.0711 22 20.5355 20.5355Z" fill="#1B84FF"/>
<path d="M7.15916 8.57506L7.49272 8.94198L7.15916 8.57507C6.89857 8.81197 6.75 9.14781 6.75 9.49999C6.75 9.85217 6.89857 10.188 7.15916 10.4249L9.90916 12.9249C10.1474 13.1415 10.4466 13.2489 10.7451 13.25H8C7.30964 13.25 6.75 13.8096 6.75 14.5C6.75 15.1903 7.30964 15.75 8 15.75L12.7667 15.75L12.4092 16.0751C11.8983 16.5394 11.8607 17.33 12.3251 17.8408C12.7895 18.3517 13.58 18.3893 14.0908 17.9249L16.8408 15.4249C17.1014 15.188 17.25 14.8522 17.25 14.5C17.25 14.1478 17.1014 13.812 16.8408 13.5751L14.0908 11.0751C13.8525 10.8584 13.5533 10.751 13.2547 10.75L16 10.75C16.6904 10.75 17.25 10.1903 17.25 9.49999C17.25 8.80963 16.6904 8.24999 16 8.24999L11.2333 8.24999L11.5908 7.92491C12.1017 7.46053 12.1393 6.66997 11.6749 6.15915C11.2105 5.64833 10.42 5.61068 9.90916 6.07506L7.15916 8.57506ZM12.7667 13.25H10.7541C11.0925 13.2488 11.4293 13.111 11.6749 12.8408C12.1393 12.33 12.1017 11.5394 11.5908 11.0751L11.2333 10.75L13.246 10.75C12.9076 10.7512 12.5707 10.889 12.3251 11.1591C11.8607 11.67 11.8983 12.4605 12.4092 12.9249L12.7667 13.25Z" fill="#1B84FF" stroke="#E7F1FF"/>
</svg>
