<svg width="25" height="24" viewBox="0 0 25 24" fill="none" xmlns="http://www.w3.org/2000/svg">
<g clip-path="url(#clip0_40_1008)">
<path d="M21.213 8.12798L20.967 8.69398C20.9286 8.78615 20.8637 8.86488 20.7806 8.92026C20.6975 8.97563 20.5999 9.00518 20.5 9.00518C20.4001 9.00518 20.3025 8.97563 20.2194 8.92026C20.1363 8.86488 20.0714 8.78615 20.033 8.69398L19.787 8.12798C19.3545 7.12671 18.5624 6.3239 17.567 5.87798L16.808 5.53898C16.7159 5.49662 16.6379 5.42875 16.5832 5.34341C16.5286 5.25807 16.4995 5.15884 16.4995 5.05748C16.4995 4.95613 16.5286 4.85689 16.5832 4.77155C16.6379 4.68621 16.7159 4.61834 16.808 4.57598L17.525 4.25698C18.5454 3.79836 19.3511 2.96586 19.776 1.93098L20.029 1.31998C20.0662 1.22534 20.131 1.14408 20.215 1.08681C20.299 1.02953 20.3983 0.998901 20.5 0.998901C20.6017 0.998901 20.701 1.02953 20.785 1.08681C20.869 1.14408 20.9338 1.22534 20.971 1.31998L21.224 1.92998C21.6485 2.96506 22.4538 3.79792 23.474 4.25698L24.192 4.57698C24.2838 4.61946 24.3615 4.68732 24.416 4.77256C24.4705 4.85779 24.4994 4.95683 24.4994 5.05798C24.4994 5.15914 24.4705 5.25818 24.416 5.34341C24.3615 5.42864 24.2838 5.4965 24.192 5.53898L23.432 5.87698C22.4368 6.32335 21.6451 7.12651 21.213 8.12798ZM10.5 2.99998H14.5V4.99998H10.5C8.9087 4.99998 7.38258 5.63212 6.25736 6.75734C5.13214 7.88256 4.5 9.40868 4.5 11C4.5 14.61 6.962 16.966 12.5 19.48V17H14.5C16.0913 17 17.6174 16.3678 18.7426 15.2426C19.8679 14.1174 20.5 12.5913 20.5 11H22.5C22.5 13.1217 21.6571 15.1565 20.1569 16.6568C18.6566 18.1571 16.6217 19 14.5 19V22.5C9.5 20.5 2.5 17.5 2.5 11C2.5 8.87825 3.34285 6.84342 4.84315 5.34313C6.34344 3.84284 8.37827 2.99998 10.5 2.99998Z" fill=""/>
</g>
<defs>
<clipPath id="clip0_40_1008">
<rect width="24" height="24" fill="white" transform="translate(0.5)"/>
</clipPath>
</defs>
</svg>
