<svg width="23" height="22" viewBox="0 0 23 22" fill="none" xmlns="http://www.w3.org/2000/svg">
<path d="M19.213 7.12798L18.967 7.69398C18.9286 7.78615 18.8637 7.86488 18.7806 7.92026C18.6975 7.97563 18.5999 8.00518 18.5 8.00518C18.4001 8.00518 18.3025 7.97563 18.2194 7.92026C18.1363 7.86488 18.0714 7.78615 18.033 7.69398L17.787 7.12798C17.3545 6.12671 16.5624 5.3239 15.567 4.87798L14.808 4.53898C14.7159 4.49662 14.6379 4.42875 14.5832 4.34341C14.5286 4.25807 14.4995 4.15884 14.4995 4.05748C14.4995 3.95613 14.5286 3.85689 14.5832 3.77155C14.6379 3.68621 14.7159 3.61834 14.808 3.57598L15.525 3.25698C16.5454 2.79836 17.3511 1.96586 17.776 0.930982L18.029 0.319983C18.0662 0.225336 18.131 0.14408 18.215 0.0868075C18.299 0.0295345 18.3983 -0.00109863 18.5 -0.00109863C18.6017 -0.00109863 18.701 0.0295345 18.785 0.0868075C18.869 0.14408 18.9338 0.225336 18.971 0.319983L19.224 0.929982C19.6485 1.96506 20.4538 2.79792 21.474 3.25698L22.192 3.57698C22.2838 3.61946 22.3615 3.68732 22.416 3.77256C22.4705 3.85779 22.4994 3.95683 22.4994 4.05798C22.4994 4.15914 22.4705 4.25818 22.416 4.34341C22.3615 4.42864 22.2838 4.4965 22.192 4.53898L21.432 4.87698C20.4368 5.32335 19.6451 6.12651 19.213 7.12798ZM18.5 9.99998C19.1787 10.0005 19.8526 9.88589 20.493 9.66098C20.4977 9.77432 20.5 9.88732 20.5 9.99998C20.5 12.1217 19.6571 14.1565 18.1569 15.6568C16.6566 17.1571 14.6217 18 12.5 18V21.5C7.5 19.5 0.5 16.5 0.5 9.99998C0.5 7.87825 1.34285 5.84342 2.84315 4.34313C4.34344 2.84284 6.37827 1.99998 8.5 1.99998H12.5C12.6133 1.99998 12.7263 2.00232 12.839 2.00698C12.5203 2.91191 12.4233 3.88006 12.556 4.83022C12.6888 5.78039 13.0475 6.68487 13.602 7.4678C14.1565 8.25072 14.8906 8.88926 15.7429 9.32986C16.5951 9.77045 17.5406 10.0003 18.5 9.99998Z" fill=""/>
</svg>
