<svg width="14" height="14" viewBox="0 0 14 14" fill="none" xmlns="http://www.w3.org/2000/svg">
<rect width="14" height="14" rx="7" fill="currentColor"/>
<path d="M10.5516 3.97745C10.6028 3.92523 10.6639 3.88374 10.7313 3.85541C10.7987 3.82709 10.8711 3.8125 10.9442 3.8125C11.0174 3.8125 11.0898 3.82709 11.1572 3.85541C11.2246 3.88374 11.2857 3.92523 11.3369 3.97745C11.5514 4.1942 11.5544 4.54445 11.3444 4.76495L6.90962 10.0075C6.85927 10.0627 6.79817 10.1072 6.73005 10.138C6.66194 10.1689 6.58824 10.1856 6.51347 10.187C6.43871 10.1884 6.36444 10.1745 6.29521 10.1462C6.22599 10.1179 6.16326 10.0758 6.11087 10.0224L3.41237 7.28795C3.3083 7.18181 3.25 7.0391 3.25 6.89045C3.25 6.7418 3.3083 6.59909 3.41237 6.49295C3.46355 6.44072 3.52464 6.39924 3.59206 6.37091C3.65948 6.34259 3.73187 6.328 3.80499 6.328C3.87812 6.328 3.95051 6.34259 4.01793 6.37091C4.08535 6.39924 4.14643 6.44072 4.19762 6.49295L6.48662 8.8127L10.5366 3.99395C10.5413 3.98815 10.5463 3.98264 10.5516 3.97745Z" fill="white"/>
</svg>
