<svg width="24" height="24" viewBox="0 0 24 24" fill="none" xmlns="http://www.w3.org/2000/svg">
<path opacity="0.5" d="M8.99956 21H14.9996C16.8852 21 17.828 21 18.4138 20.4142C18.8853 19.9427 18.9773 19.2398 18.9952 18H5.00391C5.02184 19.2398 5.1138 19.9427 5.58535 20.4142C6.17113 21 7.11394 21 8.99956 21Z" fill="#1B84FF"/>
<path d="M11.25 7H9C7.11438 7 6.17157 7 5.58579 7.58579C5 8.17157 5 9.11438 5 11V17C5 17.3677 5 17.6996 5.00435 18H18.9957C19 17.6996 19 17.3677 19 17V11C19 9.11438 19 8.17157 18.4142 7.58579C17.8284 7 16.8856 7 15 7H12.75V11.9726L13.4306 11.1786C13.7001 10.8641 14.1736 10.8277 14.4881 11.0972C14.8026 11.3668 14.839 11.8403 14.5694 12.1548L12.5694 14.4881C12.427 14.6543 12.2189 14.75 12 14.75C11.7811 14.75 11.573 14.6543 11.4306 14.4881L9.43056 12.1548C9.16099 11.8403 9.19741 11.3668 9.51191 11.0972C9.8264 10.8277 10.2999 10.8641 10.5694 11.1786L11.25 11.9726V7Z" fill="#1B84FF"/>
<path opacity="0.5" d="M18.1111 4H5.88889C3.74112 4 2 5.79998 2 8.02036C2 9.92457 3.28058 11.5196 5 11.9352V11C5 9.11438 5 8.17157 5.58579 7.58579C6.17157 7 7.11438 7 9 7H11.25H12.75H15C16.8856 7 17.8284 7 18.4142 7.58579C19 8.17157 19 9.11438 19 11V11.9352C20.7194 11.5196 22 9.92457 22 8.02036C22 5.79998 20.2589 4 18.1111 4Z" fill="#1B84FF"/>
</svg>
