<svg width="162" height="162" viewBox="0 0 162 162" fill="none" xmlns="http://www.w3.org/2000/svg">
<path d="M93 30.002H69H68.8389C57.6615 30.0019 49.0644 30.0019 42.393 30.9192C35.6274 31.8495 30.5457 33.7569 26.5994 37.7929C22.6592 41.8227 20.8025 47.0014 19.8957 53.8992C19 60.7132 19 69.4982 19 80.9382V81.0929V81.2475C19 92.6875 19 101.472 19.8957 108.287C20.8025 115.184 22.6592 120.363 26.5994 124.393L28.0294 122.995L26.5994 124.393C30.5457 128.429 35.6274 130.336 42.393 131.266C49.0644 132.184 57.6615 132.184 68.8389 132.184H69H93H93.1611C104.338 132.184 112.936 132.184 119.607 131.266C126.373 130.336 131.454 128.429 135.401 124.393C139.341 120.363 141.197 115.184 142.104 108.287C143 101.472 143 92.6876 143 81.2476V81.0929V80.9381C143 69.4982 143 60.7132 142.104 53.8992C141.197 47.0014 139.341 41.8227 135.401 37.7929C131.454 33.7569 126.373 31.8495 119.607 30.9192C112.936 30.0019 104.338 30.0019 93.1611 30.002H93Z" fill="#9EDCFF" stroke="#7E94B5" stroke-width="4" stroke-linecap="round"/>
<path d="M69 33.502H93C104.357 33.502 112.721 33.5053 119.13 34.3866C125.493 35.2615 129.707 36.9763 132.898 40.2398C136.094 43.5081 137.777 47.8315 138.634 54.3553C139.497 60.9189 139.5 69.4805 139.5 81.0929C139.5 92.7052 139.497 101.267 138.634 107.83C137.777 114.354 136.094 118.678 132.898 121.946C129.707 125.209 125.493 126.924 119.13 127.799C112.721 128.68 104.357 128.684 93 128.684H69C57.6429 128.684 49.2794 128.68 42.8698 127.799C36.5068 126.924 32.293 125.209 29.1019 121.946C25.9063 118.678 24.2235 114.354 23.3659 107.83C22.503 101.267 22.5 92.7052 22.5 81.0929C22.5 69.4805 22.503 60.9189 23.3659 54.3553C24.2235 47.8315 25.9063 43.5081 29.1019 40.2398C32.293 36.9763 36.5068 35.2615 42.8698 34.3866C49.2794 33.5053 57.6429 33.502 69 33.502Z" fill="#9EDCFF" stroke="white" stroke-width="3" stroke-linecap="round"/>
<path opacity="0.4" d="M119.882 59.4591C121.791 57.868 122.049 55.0305 120.458 53.1212C118.867 51.212 116.03 50.954 114.12 52.5451L101.167 63.3395C95.5691 68.0043 91.6827 71.2326 88.4016 73.3428C85.2254 75.3856 83.0715 76.0713 81.0011 76.0713C78.9307 76.0713 76.7767 75.3856 73.6006 73.3428C70.3195 71.2326 66.4331 68.0043 60.8353 63.3396L47.8819 52.5451C45.9727 50.954 43.1351 51.212 41.5441 53.1212C39.9531 55.0305 40.211 57.868 42.1203 59.4591L55.2992 70.4415C60.6174 74.8735 64.9278 78.4656 68.7322 80.9124C72.6951 83.4612 76.5546 85.0713 81.0011 85.0713C85.4476 85.0713 89.3071 83.4612 93.27 80.9124C97.0744 78.4656 101.385 74.8734 106.703 70.4415L119.882 59.4591Z" fill="#1C274C"/>
</svg>
