<svg width="32" height="32" viewBox="0 0 32 32" fill="none" xmlns="http://www.w3.org/2000/svg">
<path opacity="0.3" d="M4 13.8893C4 9.62529 4 7.49329 4.504 6.77596C5.00667 6.05996 7.01067 5.37329 11.02 4.00129L11.784 3.73996C13.8733 3.02396 14.9173 2.66663 16 2.66663C17.0813 2.66663 18.1267 3.02396 20.216 3.73996L20.98 4.00129C24.9893 5.37329 26.9933 6.05996 27.496 6.77596C28 7.49329 28 9.62663 28 13.8893V15.988C28 23.5053 22.348 27.1546 18.8013 28.7026C17.84 29.1226 17.36 29.3333 16 29.3333C14.64 29.3333 14.16 29.1226 13.1987 28.7026C9.652 27.1533 4 23.5066 4 15.988V13.8893Z" fill="currentColor"/>
<path d="M16.0001 9.66663C16.2653 9.66663 16.5197 9.77198 16.7072 9.95952C16.8947 10.1471 17.0001 10.4014 17.0001 10.6666V16C17.0001 16.2652 16.8947 16.5195 16.7072 16.7071C16.5197 16.8946 16.2653 17 16.0001 17C15.7349 17 15.4805 16.8946 15.293 16.7071C15.1054 16.5195 15.0001 16.2652 15.0001 16V10.6666C15.0001 10.4014 15.1054 10.1471 15.293 9.95952C15.4805 9.77198 15.7349 9.66663 16.0001 9.66663ZM16.0001 21.3333C16.3537 21.3333 16.6928 21.1928 16.9429 20.9428C17.1929 20.6927 17.3334 20.3536 17.3334 20C17.3334 19.6463 17.1929 19.3072 16.9429 19.0572C16.6928 18.8071 16.3537 18.6666 16.0001 18.6666C15.6465 18.6666 15.3073 18.8071 15.0573 19.0572C14.8072 19.3072 14.6667 19.6463 14.6667 20C14.6667 20.3536 14.8072 20.6927 15.0573 20.9428C15.3073 21.1928 15.6465 21.3333 16.0001 21.3333Z" fill="currentColor"/>
</svg>
