<svg width="17" height="18" viewBox="0 0 17 18" fill="none" xmlns="http://www.w3.org/2000/svg">
<path d="M8.70664 11.9346L6.58161 13.7753C6.55347 13.7978 6.52343 13.8178 6.49182 13.8351L6.417 13.8725C6.35381 13.9023 6.2848 13.9176 6.21497 13.9174C6.14521 13.9169 6.07636 13.9016 6.01294 13.8725L5.9456 13.8351L5.88574 13.7902L3.57364 11.942C3.45702 11.8468 3.38233 11.7097 3.36554 11.56C3.34876 11.4104 3.39123 11.2601 3.48385 11.1414C3.52977 11.0831 3.58681 11.0344 3.65167 10.9983C3.71652 10.9622 3.7879 10.9393 3.86168 10.9309C3.93545 10.9226 4.01014 10.9289 4.08143 10.9497C4.15272 10.9704 4.2192 11.005 4.277 11.0516L5.65378 12.1665V8.29058C5.65378 8.14175 5.7129 7.99901 5.81815 7.89376C5.92339 7.78852 6.06613 7.72939 6.21497 7.72939C6.3638 7.72939 6.50654 7.78852 6.61179 7.89376C6.71703 7.99901 6.77615 8.14175 6.77615 8.29058V12.1067L7.98084 11.0666C8.09029 10.9808 8.22802 10.9393 8.36666 10.9504C8.50529 10.9615 8.63468 11.0243 8.72909 11.1265C8.83217 11.2371 8.88759 11.3839 8.88339 11.5351C8.87919 11.6863 8.81571 11.8298 8.70664 11.9346ZM16.9374 12.2039C16.9454 13.4774 16.4482 14.7021 15.5547 15.6095C14.6613 16.517 13.4445 17.0333 12.171 17.0451H5.57895C4.30553 17.0333 3.08874 16.517 2.19529 15.6095C1.30184 14.7021 0.804617 13.4774 0.812595 12.2039V5.79891C0.804617 4.52545 1.30184 3.30077 2.19529 2.3933C3.08874 1.48582 4.30553 0.96958 5.57895 0.957722H10.4127C10.4598 0.950759 10.5077 0.950759 10.5548 0.957722H10.6147C10.673 0.982831 10.7262 1.01833 10.7718 1.06248L16.7578 7.14576C16.8258 7.21582 16.8745 7.30217 16.8994 7.39652C16.9243 7.49088 16.9245 7.59005 16.9 7.6845C16.9043 7.72179 16.9043 7.75945 16.9 7.79674L16.9374 12.2039ZM10.9514 5.118C10.9494 5.62346 11.1472 6.10922 11.5018 6.46943C11.8564 6.82963 12.339 7.03508 12.8445 7.041H15.0219L10.9364 2.90317L10.9514 5.118ZM15.8375 12.2039V8.17834H12.8445C12.0433 8.16457 11.2798 7.8356 10.7196 7.26274C10.1593 6.68987 9.84741 5.91928 9.85147 5.118V2.12499H5.57895C4.60977 2.13289 3.68296 2.52344 3.00043 3.21158C2.3179 3.89972 1.93494 4.82969 1.93497 5.79891V12.2039C1.93102 12.6864 2.02215 13.1649 2.20314 13.6122C2.38414 14.0594 2.65146 14.4666 2.98984 14.8106C3.32821 15.1545 3.73102 15.4284 4.17527 15.6167C4.61951 15.805 5.09648 15.9039 5.57895 15.9078H12.1785C12.661 15.9039 13.138 15.805 13.5822 15.6167C14.0265 15.4284 14.4293 15.1545 14.7676 14.8106C15.106 14.4666 15.3733 14.0594 15.5543 13.6122C15.7353 13.1649 15.8265 12.6864 15.8225 12.2039H15.8375Z" fill="currentColor"/>
</svg>
