<svg width="16" height="16" viewBox="0 0 16 16" fill="none" xmlns="http://www.w3.org/2000/svg">
<path d="M12.4188 2.02038C11.7218 1.39317 10.8986 0.922333 10.0046 0.639492C9.11054 0.356651 8.16636 0.268348 7.23539 0.380511C6.03024 0.522391 4.88713 0.992263 3.93058 1.73895C2.97403 2.48563 2.24072 3.48048 1.81053 4.61515C1.38035 5.74981 1.26978 6.98077 1.49087 8.17393C1.71197 9.3671 2.25624 10.4767 3.06441 11.3819L6.16591 14.8399C6.3967 15.0999 6.67996 15.308 6.99704 15.4505C7.31411 15.593 7.65779 15.6666 8.00542 15.6666C8.35304 15.6666 8.69672 15.593 9.0138 15.4505C9.33087 15.308 9.61414 15.0999 9.84492 14.8399L12.9464 11.3819C14.1159 10.0696 14.7171 8.34705 14.6182 6.59205C14.5193 4.83706 13.7283 3.19295 12.4188 2.02038V2.02038ZM8.00542 14.5975C7.80764 14.596 7.61232 14.5534 7.43188 14.4724C7.25145 14.3914 7.08984 14.2737 6.95733 14.1269L3.86296 10.6689C3.18295 9.91092 2.72441 8.98056 2.53748 7.97954C2.35054 6.97853 2.44241 5.94538 2.80302 4.99305C3.16364 4.04072 3.77914 3.20586 4.58222 2.57974C5.38531 1.95361 6.34507 1.56032 7.3566 1.44286V1.44286C7.57763 1.44286 7.79865 1.44286 8.01968 1.44286C9.38256 1.44544 10.696 1.95355 11.7058 2.86884C12.8029 3.85121 13.4655 5.2286 13.5484 6.69887C13.6312 8.16915 13.1276 9.61227 12.1479 10.7117L9.05351 14.1697C8.91727 14.3088 8.75399 14.4185 8.57373 14.492C8.39348 14.5656 8.20007 14.6015 8.00542 14.5975V14.5975ZM8.00542 4.14508C7.43985 4.14513 6.88706 4.31333 6.41732 4.62831C5.94757 4.94329 5.58209 5.39083 5.36732 5.91403C5.15255 6.43724 5.09819 7.01249 5.21116 7.56666C5.32412 8.12084 5.5993 8.62891 6.00173 9.02631C6.40416 9.4237 6.91565 9.69248 7.4712 9.79846C8.02676 9.90444 8.60128 9.84285 9.12174 9.62152C9.6422 9.40019 10.0851 9.0291 10.3942 8.55544C10.7032 8.08177 10.8644 7.52691 10.8574 6.96138C10.848 6.21119 10.5434 5.49492 10.0096 4.96776C9.47572 4.4406 8.75567 4.14503 8.00542 4.14508ZM8.00542 8.71533C7.65822 8.71674 7.31841 8.61508 7.02904 8.42321C6.73967 8.23134 6.51375 7.95791 6.3799 7.63755C6.24606 7.31718 6.21031 6.9643 6.27718 6.6236C6.34404 6.2829 6.51053 5.96971 6.75553 5.7237C7.00054 5.47769 7.31305 5.30993 7.65348 5.24168C7.9939 5.17342 8.34693 5.20774 8.66784 5.34028C8.98875 5.47282 9.2631 5.69762 9.45614 5.9862C9.64918 6.27479 9.75223 6.61418 9.75224 6.96138C9.75224 7.42533 9.56843 7.87037 9.24104 8.1991C8.91365 8.52782 8.46936 8.71345 8.00542 8.71533Z" fill="#716E74"/>
</svg>
