<svg width="16" height="17" viewBox="0 0 16 17" fill="none" xmlns="http://www.w3.org/2000/svg">
<path fillRule="evenodd" clipRule="evenodd" d="M2 13.9998V7.49982H3V13.9998C3 14.1324 3.05268 14.2596 3.14645 14.3534C3.24021 14.4471 3.36739 14.4998 3.5 14.4998H12.5C12.6326 14.4998 12.7598 14.4471 12.8536 14.3534C12.9473 14.2596 13 14.1324 13 13.9998V7.49982H14V13.9998C14 14.3976 13.842 14.7792 13.5607 15.0605C13.2794 15.3418 12.8978 15.4998 12.5 15.4998H3.5C3.10217 15.4998 2.72064 15.3418 2.43934 15.0605C2.15803 14.7792 2 14.3976 2 13.9998ZM13 2.99982V6.49982L11 4.49982V2.99982C11 2.86721 11.0527 2.74003 11.1464 2.64626C11.2402 2.5525 11.3674 2.49982 11.5 2.49982H12.5C12.6326 2.49982 12.7598 2.5525 12.8536 2.64626C12.9473 2.74003 13 2.86721 13 2.99982Z" fill="#1B84FF"/>
<path fillRule="evenodd" clipRule="evenodd" d="M7.293 1.99982C7.48053 1.81235 7.73483 1.70703 8 1.70703C8.26516 1.70703 8.51947 1.81235 8.707 1.99982L15.354 8.64582C15.4479 8.7397 15.5006 8.86704 15.5006 8.99982C15.5006 9.13259 15.4479 9.25993 15.354 9.35382C15.2601 9.4477 15.1328 9.50045 15 9.50045C14.8672 9.50045 14.7399 9.4477 14.646 9.35382L8 2.70682L1.354 9.35382C1.26011 9.4477 1.13277 9.50045 0.999998 9.50045C0.867223 9.50045 0.739885 9.4477 0.645998 9.35382C0.552112 9.25993 0.499367 9.13259 0.499367 8.99982C0.499367 8.86704 0.552112 8.7397 0.645998 8.64582L7.293 1.99982Z" fill="#1B84FF"/>
</svg>
