<svg width="40" height="40" viewBox="0 0 40 40" fill="none" xmlns="http://www.w3.org/2000/svg">
<rect width="40" height="40" rx="8" fill="#E7F1FF"/>
<path opacity="0.3" d="M15.245 10H24.755C25.9139 10 26.4933 10 26.9606 10.1626C27.8468 10.471 28.5425 11.1872 28.842 12.0995C29 12.5805 29 13.1771 29 14.3701V28.3742C29 29.2324 28.015 29.6878 27.3919 29.1176C27.0258 28.7826 26.4742 28.7826 26.1081 29.1176L25.625 29.5597C24.9834 30.1468 24.0166 30.1468 23.375 29.5597C22.7334 28.9726 21.7666 28.9726 21.125 29.5597C20.4834 30.1468 19.5166 30.1468 18.875 29.5597C18.2334 28.9726 17.2666 28.9726 16.625 29.5597C15.9834 30.1468 15.0166 30.1468 14.375 29.5597L13.8919 29.1176C13.5258 28.7826 12.9742 28.7826 12.6081 29.1176C11.985 29.6878 11 29.2324 11 28.3742V14.3701C11 13.1771 11 12.5805 11.158 12.0995C11.4575 11.1872 12.1532 10.471 13.0394 10.1626C13.5067 10 14.0861 10 15.245 10Z" fill="#1B84FF"/>
<path d="M15 14.75C14.5858 14.75 14.25 15.0858 14.25 15.5C14.25 15.9142 14.5858 16.25 15 16.25H15.5C15.9142 16.25 16.25 15.9142 16.25 15.5C16.25 15.0858 15.9142 14.75 15.5 14.75H15Z" fill="#1B84FF"/>
<path d="M18.5 14.75C18.0858 14.75 17.75 15.0858 17.75 15.5C17.75 15.9142 18.0858 16.25 18.5 16.25H25C25.4142 16.25 25.75 15.9142 25.75 15.5C25.75 15.0858 25.4142 14.75 25 14.75H18.5Z" fill="#1B84FF"/>
<path d="M15 18.25C14.5858 18.25 14.25 18.5858 14.25 19C14.25 19.4142 14.5858 19.75 15 19.75H15.5C15.9142 19.75 16.25 19.4142 16.25 19C16.25 18.5858 15.9142 18.25 15.5 18.25H15Z" fill="#1B84FF"/>
<path d="M18.5 18.25C18.0858 18.25 17.75 18.5858 17.75 19C17.75 19.4142 18.0858 19.75 18.5 19.75H25C25.4142 19.75 25.75 19.4142 25.75 19C25.75 18.5858 25.4142 18.25 25 18.25H18.5Z" fill="#1B84FF"/>
<path d="M15 21.75C14.5858 21.75 14.25 22.0858 14.25 22.5C14.25 22.9142 14.5858 23.25 15 23.25H15.5C15.9142 23.25 16.25 22.9142 16.25 22.5C16.25 22.0858 15.9142 21.75 15.5 21.75H15Z" fill="#1B84FF"/>
<path d="M18.5 21.75C18.0858 21.75 17.75 22.0858 17.75 22.5C17.75 22.9142 18.0858 23.25 18.5 23.25H25C25.4142 23.25 25.75 22.9142 25.75 22.5C25.75 22.0858 25.4142 21.75 25 21.75H18.5Z" fill="#1B84FF"/>
</svg>
