<svg width="40" height="40" viewBox="0 0 40 40" fill="none" xmlns="http://www.w3.org/2000/svg">
<rect width="40" height="40" rx="8" fill="#E7F1FF"/>
<path opacity="0.3" fillRule="evenodd" clip-rule="evenodd" d="M30 20C30 25.5228 25.5228 30 20 30C14.4772 30 10 25.5228 10 20C10 14.4772 14.4772 10 20 10C25.5228 10 30 14.4772 30 20Z" fill="#1B84FF"/>
<path d="M20.75 14C20.75 13.5858 20.4142 13.25 20 13.25C19.5858 13.25 19.25 13.5858 19.25 14V14.3167C17.6196 14.6087 16.25 15.8336 16.25 17.5C16.25 19.4172 18.0628 20.75 20 20.75C21.3765 20.75 22.25 21.6557 22.25 22.5C22.25 23.3443 21.3765 24.25 20 24.25C18.6235 24.25 17.75 23.3443 17.75 22.5C17.75 22.0858 17.4142 21.75 17 21.75C16.5858 21.75 16.25 22.0858 16.25 22.5C16.25 24.1664 17.6196 25.3913 19.25 25.6833V26C19.25 26.4142 19.5858 26.75 20 26.75C20.4142 26.75 20.75 26.4142 20.75 26V25.6833C22.3804 25.3913 23.75 24.1664 23.75 22.5C23.75 20.5828 21.9372 19.25 20 19.25C18.6235 19.25 17.75 18.3443 17.75 17.5C17.75 16.6557 18.6235 15.75 20 15.75C21.3765 15.75 22.25 16.6557 22.25 17.5C22.25 17.9142 22.5858 18.25 23 18.25C23.4142 18.25 23.75 17.9142 23.75 17.5C23.75 15.8336 22.3804 14.6087 20.75 14.3167V14Z" fill="#1B84FF"/>
</svg>
