<svg width="32" height="31" viewBox="0 0 32 31" fill="none" xmlns="http://www.w3.org/2000/svg">
<path d="M6.61072 26.528C6.5296 26.751 6.64469 26.9977 6.86777 27.0788C7.09085 27.1599 7.33745 27.0448 7.41857 26.8217L6.61072 26.528ZM25.2893 4.02125C25.1215 3.8534 24.8493 3.8534 24.6815 4.02125L21.9463 6.75649C21.7784 6.92434 21.7784 7.19647 21.9463 7.36432C22.1141 7.53217 22.3862 7.53217 22.5541 7.36432L24.9854 4.933L27.4167 7.36432C27.5846 7.53217 27.8567 7.53217 28.0246 7.36432C28.1924 7.19647 28.1924 6.92434 28.0246 6.75649L25.2893 4.02125ZM7.41857 26.8217C8.23181 24.5853 9.69329 23.3127 11.4769 22.3523C12.3758 21.8683 13.3513 21.4666 14.3709 21.0602C15.3838 20.6565 16.4426 20.2474 17.4742 19.7563C19.5471 18.7695 21.5508 17.434 23.0263 15.055C24.4982 12.6817 25.4152 9.31752 25.4152 4.32516H24.5556C24.5556 9.21825 23.6561 12.4085 22.2958 14.6019C20.939 16.7896 19.0947 18.0328 17.1047 18.9801C16.1048 19.4561 15.0785 19.8529 14.0526 20.2617C13.0334 20.668 12.0164 21.0856 11.0694 21.5955C9.16116 22.6229 7.5167 24.0365 6.61072 26.528L7.41857 26.8217Z" fill="#00B44B"/>
</svg>
