<svg width="40" height="40" viewBox="0 0 40 40" fill="none" xmlns="http://www.w3.org/2000/svg">
<rect width="40" height="40" rx="12" fill="#EAF6FE"/>
<path d="M28.9332 18.7208C28.9379 18.6822 28.9379 18.6431 28.9332 18.6044C28.9606 18.5009 28.9604 18.3919 28.9327 18.2885C28.905 18.185 28.8508 18.0905 28.7753 18.0144L22.1272 11.3663C22.0747 11.3174 22.016 11.2755 21.9527 11.2417H21.8862C21.834 11.233 21.7806 11.233 21.7283 11.2417H16.3351C14.9418 11.2437 13.6054 11.7942 12.6147 12.7739C11.6241 13.7536 11.059 15.0839 11.0415 16.4771V23.4742C11.0437 24.8775 11.6021 26.2226 12.5944 27.2149C13.5866 28.2071 14.9318 28.7656 16.3351 28.7678H23.6646C25.0679 28.7656 26.413 28.2071 27.4053 27.2149C28.3976 26.2226 28.956 24.8775 28.9582 23.4742L28.9332 18.7208ZM22.2851 13.3275L26.8058 17.8316H24.3876C23.8307 17.8294 23.2972 17.6072 22.9033 17.2134C22.5095 16.8196 22.2873 16.2861 22.2851 15.7291V13.3275ZM23.6646 27.5379H16.3351C15.2624 27.5357 14.2343 27.1086 13.4758 26.3501C12.7173 25.5916 12.2902 24.5635 12.288 23.4908V16.4771C12.2902 15.4044 12.7173 14.3763 13.4758 13.6178C14.2343 12.8593 15.2624 12.4322 16.3351 12.43H21.0386V15.7541C21.0386 16.6357 21.3888 17.4812 22.0122 18.1045C22.6356 18.7279 23.4811 19.0781 24.3627 19.0781H27.6867V23.4742C27.6867 24.5432 27.2638 25.5689 26.5102 26.3271C25.7566 27.0854 24.7336 27.5146 23.6646 27.5212V27.5379Z" fill="#2EA5F5"/>
</svg>
