<svg width="32" height="32" viewBox="0 0 32 32" fill="none" xmlns="http://www.w3.org/2000/svg">
<path opacity="0.3" d="M16 30.6666C24.1002 30.6666 30.6666 24.1002 30.6666 16C30.6666 7.8998 24.1002 1.33331 16 1.33331C7.8998 1.33331 1.33331 7.8998 1.33331 16C1.33331 24.1002 7.8998 30.6666 16 30.6666Z" fill="#1B84FF"/>
<path fill-rule="evenodd" clip-rule="evenodd" d="M17.8334 10.1192C17.8334 11.1317 17.0125 11.9525 16 11.9525C14.9875 11.9525 14.1667 11.1317 14.1667 10.1192C14.1667 9.10664 14.9875 8.28583 16 8.28583C17.0125 8.28583 17.8334 9.10664 17.8334 10.1192ZM17.037 14.3762C16.7619 14.1012 16.3889 13.9466 15.9999 13.9466C15.6109 13.9466 15.2379 14.1012 14.9628 14.3762C14.6877 14.6513 14.5332 15.0243 14.5332 15.4133V22.248C14.5332 22.637 14.6877 23.01 14.9628 23.2851C15.2379 23.5601 15.6109 23.7146 15.9999 23.7146C16.3889 23.7146 16.7619 23.5601 17.037 23.2851C17.312 23.01 17.4666 22.637 17.4666 22.248V15.4133C17.4666 15.0243 17.312 14.6513 17.037 14.3762Z" fill="#1B84FF"/>
</svg>
