<svg width="16" height="17" viewBox="0 0 16 17" fill="none" xmlns="http://www.w3.org/2000/svg">
<path d="M2.52632 2.18359H13.4737C14.1437 2.18359 14.7863 2.44976 15.2601 2.92353C15.7338 3.39731 16 4.03989 16 4.70991V12.2889C16 12.9589 15.7338 13.6015 15.2601 14.0752C14.7863 14.549 14.1437 14.8152 13.4737 14.8152H2.52632C1.8563 14.8152 1.21372 14.549 0.739941 14.0752C0.266165 13.6015 0 12.9589 0 12.2889V4.70991C0 4.03989 0.266165 3.39731 0.739941 2.92353C1.21372 2.44976 1.8563 2.18359 2.52632 2.18359ZM2.52632 3.0257C2.10526 3.0257 1.73474 3.16886 1.44842 3.42149L8 7.65728L14.5516 3.42149C14.2653 3.16886 13.8947 3.0257 13.4737 3.0257H2.52632ZM8 8.67623L0.951579 4.10359C0.884211 4.28886 0.842105 4.49938 0.842105 4.70991V12.2889C0.842105 12.7355 1.01955 13.1639 1.3354 13.4798C1.65125 13.7956 2.07964 13.9731 2.52632 13.9731H13.4737C13.9204 13.9731 14.3488 13.7956 14.6646 13.4798C14.9805 13.1639 15.1579 12.7355 15.1579 12.2889V4.70991C15.1579 4.49938 15.1158 4.28886 15.0484 4.10359L8 8.67623Z" fill="#1B84FF"/>
</svg>
