<svg width="5" height="9" viewBox="0 0 5 9" fill="none" xmlns="http://www.w3.org/2000/svg">
<path d="M4.16279 4.98857L0.790697 8.36066C0.744186 8.40718 0.693953 8.4419 0.639999 8.46485C0.586046 8.4878 0.527752 8.49958 0.465116 8.5002C0.341085 8.5002 0.232558 8.45741 0.139534 8.37183C0.0465112 8.28625 0 8.174 0 8.03508L0 0.965321C0 0.825786 0.0465112 0.713228 0.139534 0.627646C0.232558 0.542065 0.341085 0.499585 0.465116 0.500206C0.496124 0.500206 0.604651 0.546717 0.790697 0.63974L4.16279 4.01183C4.24031 4.08935 4.29457 4.16687 4.32558 4.24439C4.35659 4.32191 4.37209 4.40718 4.37209 4.5002C4.37209 4.59322 4.35659 4.6785 4.32558 4.75601C4.29457 4.83353 4.24031 4.91105 4.16279 4.98857Z" fill="black"/>
</svg>
