<svg width="181" height="178" viewBox="0 0 181 178" fill="none" xmlns="http://www.w3.org/2000/svg">
<path d="M67.9718 75.0426C61.5387 77.2887 54.4137 74.7793 48.5002 71.3892C42.5867 67.999 37.0693 63.6583 30.5058 61.8363C26.4796 60.7132 21.6519 60.7994 18.7254 63.7841C15.4192 67.1579 15.9178 72.638 17.0944 77.2164C19.8741 87.9157 25.4264 98.1862 34.1871 104.943C42.9478 111.7 55.1849 114.363 65.4368 110.209C75.6887 106.055 82.8161 94.3651 80.2321 83.6052C79.5331 80.7417 78.1515 77.9341 75.7842 76.1796C73.4169 74.4251 69.9593 73.9708 67.5174 75.6181L67.9718 75.0426Z" fill="#8476BF"/>
<path d="M25.8555 61.1641C27.4316 61.1747 28.9991 61.3981 30.5155 61.8282C37.079 63.6572 42.5964 67.9979 48.5099 71.3811C52.8576 73.8741 57.8601 75.8919 62.7624 75.8919C64.538 75.9025 66.3026 75.6126 67.9815 75.0345L67.5272 75.61C68.5671 74.9297 69.7866 74.5759 71.0291 74.5941C72.7402 74.6079 74.4031 75.1624 75.7799 76.1785C78.1472 77.933 79.5382 80.7406 80.2279 83.6041C82.8165 94.3546 75.6891 106.053 65.4372 110.208C62.1224 111.533 58.5826 112.204 55.0129 112.184C47.6129 112.184 40.1127 109.476 34.1968 104.923C25.4361 98.1828 19.8838 87.9146 17.1041 77.2083C15.9182 72.6346 15.4196 67.1498 18.7351 63.776C20.5805 61.8934 23.183 61.1641 25.8648 61.1641H25.8555ZM25.8555 59.5331C22.4165 59.5331 19.5506 60.6049 17.5608 62.6343C14.4526 65.8054 13.7676 70.8452 15.5267 77.6184C16.931 83.1538 19.1126 88.4622 22.0064 93.3854C25.0866 98.5533 28.8542 102.871 33.1903 106.217C39.4649 111.047 47.4148 113.815 55.0012 113.815C58.7813 113.837 62.5297 113.124 66.0383 111.718C71.4229 109.534 76.0432 105.438 79.0489 100.187C82.1548 94.7647 83.1333 88.7394 81.8053 83.222C81.1901 80.659 79.8131 77.1408 76.7445 74.8644C75.0899 73.6393 73.0879 72.9733 71.0291 72.9631C70.0812 72.9579 69.1394 73.1155 68.2448 73.4291C68.1817 73.4173 68.1179 73.4103 68.0537 73.4081H67.9675C67.9117 73.4047 67.8556 73.4047 67.7998 73.4081C67.6621 73.4223 67.5266 73.4536 67.3967 73.5013C65.9003 74.0108 64.3291 74.266 62.7484 74.2563C58.8014 74.2563 54.2789 72.8093 49.3067 69.9621C47.7107 69.0464 46.1053 68.0352 44.5513 67.059C40.313 64.3935 35.9303 61.6348 30.9395 60.2438C29.2831 59.7771 27.5717 59.5341 25.8509 59.5215L25.8555 59.5331Z" fill="#323544"/>
<path d="M39.3616 72.8307L36.0041 63.9767C34.2429 63.091 32.4028 62.3718 30.5077 61.8285C28.0076 61.1295 25.2 60.8965 22.7303 61.5396L20.7451 62.2922C19.9981 62.6768 19.317 63.1778 18.7274 63.7764C15.4211 67.1502 15.9197 72.6303 17.0964 77.2087C17.5391 78.9096 18.0517 80.6011 18.6365 82.2694L38.4972 74.7343C38.6792 74.6664 38.8461 74.5633 38.9881 74.4307C39.1302 74.2982 39.2447 74.139 39.325 73.9621C39.4053 73.7852 39.4499 73.5942 39.4562 73.4C39.4625 73.2059 39.4303 73.0124 39.3616 72.8307Z" fill="#F8D0E2"/>
<path d="M68.3995 118.09C78.0223 105.073 84.9284 91.6123 92.841 77.3738C95.807 72.0382 100.996 69.9459 104.556 65.0366C108.14 60.0808 110.192 53.8387 109.987 47.5804C109.81 42.1516 107.205 34.1132 109.78 29.4066C112.539 24.3669 120.186 24.3086 125.414 26.133C138.068 30.546 146.568 41.851 150.552 54.3537C154.536 66.8563 153.556 83.2454 147.523 94.7788C141.491 106.312 133.373 112.084 122.441 118.428C114.286 123.163 104.225 124.19 94.9473 124.873C85.6693 125.555 76.0745 123.431 68.3203 117.985L68.3995 118.09Z" fill="#8476BF"/>
<path d="M118.967 25.045C121.162 25.0539 123.34 25.4239 125.414 26.1401C138.068 30.5531 146.568 41.8582 150.552 54.3608C154.536 66.8635 153.556 83.2525 147.523 94.7859C141.491 106.319 133.373 112.084 122.441 118.428C114.286 123.163 104.225 124.19 94.9473 124.873C93.832 124.955 92.7136 124.996 91.5921 124.996C83.4372 124.996 75.2241 122.799 68.4252 118.058C78.0363 105.049 84.9354 91.6008 92.841 77.374C95.8071 72.0383 100.996 69.946 104.556 65.0368C108.14 60.0809 110.192 53.8389 109.987 47.5806C109.81 42.1517 107.205 34.1133 109.78 29.4068C111.516 26.238 115.183 25.0381 118.967 25.0381V25.045ZM68.3203 117.985L68.4252 118.058L68.3996 118.09L68.3203 117.985ZM118.967 23.4141C113.962 23.4141 110.19 25.2664 108.349 28.6309C106.294 32.3821 107.07 37.6619 107.755 42.3172C108.037 44.251 108.307 46.0778 108.356 47.6342C108.507 53.5318 106.705 59.314 103.23 64.0815C101.746 66.1342 99.9498 67.6557 98.0485 69.268C95.658 71.2951 93.1858 73.3921 91.4127 76.5818C90.1149 78.9118 88.8311 81.2557 87.5869 83.5181C81.2564 95.0515 75.2683 105.956 67.4769 116.585C67.358 116.658 67.2485 116.745 67.1507 116.844C66.8799 117.121 66.7164 117.485 66.6895 117.871C66.6626 118.257 66.774 118.641 67.0039 118.952L67.0831 119.06C67.2641 119.306 67.5113 119.496 67.7961 119.607C74.5227 124.202 82.7406 126.627 91.5875 126.627C92.7385 126.627 93.9175 126.583 95.0615 126.499C104.75 125.8 114.906 124.689 123.254 119.84C128.194 116.972 133.387 113.766 137.891 109.777C142.497 105.7 146.013 101.175 148.959 95.5432C155.061 83.87 156.324 67.1174 152.099 53.8669C147.509 39.4629 137.975 28.794 125.945 24.6C123.696 23.8256 121.334 23.425 118.955 23.4141H118.967Z" fill="#323544"/>
<path d="M68.3995 118.092L68.4252 118.057L68.3203 117.987L68.3995 118.092Z" fill="#8476BF"/>
<path d="M68.3211 117.987L68.4259 118.057L68.4003 118.092L68.3211 117.987ZM68.3211 116.356C68.0194 116.356 67.7235 116.44 67.4665 116.598C67.2094 116.756 67.0012 116.982 66.8651 117.251C66.7289 117.52 66.67 117.822 66.6951 118.123C66.7201 118.424 66.8281 118.711 67.007 118.954L67.0839 119.062C67.2355 119.267 67.4332 119.434 67.661 119.548C67.8889 119.663 68.1405 119.723 68.3957 119.723C68.6506 119.724 68.9021 119.664 69.1299 119.55C69.3578 119.435 69.5555 119.269 69.7074 119.064L69.7261 119.036C69.8573 118.861 69.952 118.661 70.0043 118.448C70.0567 118.236 70.0658 118.015 70.031 117.799C69.9962 117.583 69.9183 117.376 69.8019 117.19C69.6854 117.005 69.5329 116.845 69.3533 116.72L69.2857 116.673L69.2554 116.652C68.9823 116.461 68.657 116.357 68.3234 116.356H68.3211Z" fill="#323544"/>
<path d="M150.553 54.3606C147.782 45.6675 142.827 37.5545 135.806 31.9346C138.656 36.1109 140.875 40.684 142.393 45.5067C146.377 58.0117 145.397 74.3984 139.364 85.9318C133.332 97.4652 125.219 103.23 114.287 109.574C106.132 114.309 96.071 115.336 86.793 116.019C81.4962 116.425 76.1697 115.866 71.0726 114.369C70.2121 115.602 69.3298 116.831 68.4258 118.055C76.159 123.449 85.7119 125.551 94.9479 124.873C104.226 124.19 114.287 123.162 122.442 118.428C133.374 112.083 141.487 106.331 147.522 94.7857C153.556 83.2407 154.537 66.8656 150.553 54.3606Z" fill="#F8D0E2"/>
<path d="M60.2433 109.236L60.2689 109.201L60.1641 109.131L60.2433 109.236Z" fill="#8476BF"/>
<path d="M60.1648 109.131L60.2697 109.201L60.2441 109.236L60.1648 109.131ZM60.1648 107.5C59.8631 107.5 59.5673 107.583 59.3102 107.741C59.0532 107.899 58.845 108.126 58.7088 108.395C58.5726 108.664 58.5138 108.966 58.5388 109.266C58.5639 109.567 58.6719 109.855 58.8507 110.098L58.9276 110.205C59.0793 110.41 59.277 110.577 59.5048 110.692C59.7326 110.807 59.9842 110.867 60.2394 110.867C60.4944 110.867 60.7459 110.808 60.9737 110.693C61.2015 110.579 61.3993 110.412 61.5512 110.207L61.5698 110.179C61.7011 110.004 61.7957 109.804 61.8481 109.592C61.9005 109.379 61.9096 109.158 61.8748 108.942C61.84 108.726 61.762 108.519 61.6456 108.334C61.5292 108.149 61.3766 107.989 61.197 107.863L61.1295 107.817L61.0992 107.796C60.8261 107.604 60.5008 107.501 60.1672 107.5H60.1648Z" fill="#323544"/>
<path d="M136.135 38.8783C133.733 36.8372 130.201 37.5386 127.318 38.6872C124.436 39.8359 121.417 41.3667 118.411 40.6421C117.013 40.3066 115.745 39.5004 114.331 39.2767C113.461 39.152 112.573 39.2462 111.749 39.551C110.924 39.8557 110.188 40.3612 109.608 41.0219C109.557 41.0801 109.508 41.1407 109.459 41.2036C109.634 43.3332 109.925 45.4884 109.986 47.5808C110.072 50.4571 109.706 53.3291 108.902 56.0922C116.661 54.135 125.65 55.9524 132.729 51.8143C134.919 50.5328 136.885 48.6176 137.736 46.1269C138.586 43.6361 138.088 40.5372 136.135 38.8783Z" fill="#F8D0E2"/>
<path d="M111.338 19.4295C115.746 8.82806 127.051 1.48863 138.529 1.79851C140.183 1.84045 142.089 2.18529 142.897 3.62755C143.808 5.25853 142.769 7.32056 141.374 8.55079C139.978 9.78102 138.21 10.5965 137.042 12.0458C141.492 11.7187 145.962 11.7834 150.4 12.2391C151.765 12.3789 153.159 12.5653 154.384 13.1851C155.61 13.8049 156.656 14.9349 156.817 16.3003C156.977 17.6657 156.241 18.9751 155.186 19.8302C154.13 20.6853 152.816 21.1257 151.5 21.4262C146.455 22.558 141.173 21.8688 136.588 19.4807C133.47 17.8497 130.684 15.4219 127.254 14.6297C124.554 14.0076 121.697 14.4736 119.099 15.4568C116.501 16.4401 114.146 17.922 111.799 19.3922" fill="#8476BF"/>
<path d="M146.768 22.7597C143.099 22.7666 139.482 21.8874 136.225 20.1967C135.174 19.6445 134.159 19.0061 133.175 18.3863C131.16 17.1165 129.259 15.9189 127.087 15.418C124.815 14.8937 122.161 15.1686 119.414 16.2125C116.891 17.1724 114.533 18.6496 112.257 20.0779C112.075 20.1908 111.856 20.2284 111.646 20.1828C111.497 20.2411 111.334 20.2544 111.178 20.2209C111.022 20.1874 110.878 20.1087 110.766 19.9944C110.654 19.8802 110.578 19.7355 110.548 19.5784C110.518 19.4213 110.534 19.2587 110.595 19.111C112.79 13.8312 116.786 9.11769 121.849 5.83009C126.912 2.5425 132.847 0.820646 138.56 0.972094C141.123 1.03966 142.819 1.79458 143.621 3.21819C144.767 5.25925 143.544 7.72437 141.922 9.15031C141.344 9.64079 140.738 10.0975 140.107 10.518C139.832 10.7091 139.562 10.8978 139.301 11.0865C143.032 10.9255 146.77 11.036 150.485 11.4174C151.904 11.5618 153.399 11.7622 154.756 12.4449C156.387 13.2627 157.451 14.663 157.631 16.1938C157.81 17.7246 157.074 19.3416 155.713 20.4507C154.441 21.4875 152.894 21.9349 151.689 22.2098C150.075 22.5768 148.424 22.7613 146.768 22.7597ZM124.724 13.526C125.642 13.5227 126.558 13.6235 127.453 13.8266C129.895 14.3904 132.003 15.7185 134.044 17.0047C135 17.6058 135.99 18.2279 136.985 18.7521C141.401 21.0388 146.481 21.6987 151.335 20.6161C152.866 20.2666 153.898 19.8239 154.688 19.1832C155.62 18.4213 156.133 17.3472 156.018 16.3872C155.881 15.2222 154.9 14.3438 154.026 13.9035C152.92 13.3443 151.591 13.1719 150.326 13.0414C145.936 12.5922 141.515 12.5283 137.113 12.8503C136.954 12.8637 136.795 12.83 136.655 12.7535C136.515 12.6769 136.4 12.5609 136.326 12.4198C136.251 12.2787 136.22 12.1188 136.236 11.9601C136.251 11.8013 136.313 11.6507 136.414 11.5269C137.199 10.5506 138.203 9.85397 139.173 9.1806C139.751 8.79557 140.308 8.37783 140.839 7.92941C142.02 6.89024 142.863 5.21498 142.192 4.0197C141.694 3.13198 140.456 2.65667 138.513 2.60541C128.226 2.33513 117.898 8.54685 113.086 17.6361C114.905 16.4759 116.827 15.4884 118.83 14.6863C120.709 13.9487 122.706 13.5587 124.724 13.5353V13.526Z" fill="#323544"/>
<path d="M113.354 47.3401C114.243 47.3401 114.964 46.6193 114.964 45.7301C114.964 44.8409 114.243 44.1201 113.354 44.1201C112.465 44.1201 111.744 44.8409 111.744 45.7301C111.744 46.6193 112.465 47.3401 113.354 47.3401Z" fill="#323544"/>
<path d="M125.999 45.7317C126.888 45.7317 127.609 45.0109 127.609 44.1217C127.609 43.2325 126.888 42.5117 125.999 42.5117C125.109 42.5117 124.389 43.2325 124.389 44.1217C124.389 45.0109 125.109 45.7317 125.999 45.7317Z" fill="#323544"/>
<path d="M106.731 38.3306C106.459 38.3306 106.194 38.2349 105.985 38.0601C105.775 37.8852 105.634 37.6425 105.585 37.374C105.536 37.1056 105.583 36.8286 105.718 36.5912C105.852 36.3539 106.066 36.1712 106.321 36.0752L108.05 35.4251C108.193 35.3713 108.346 35.3462 108.499 35.3512C108.652 35.3563 108.802 35.3914 108.941 35.4546C109.081 35.5177 109.206 35.6077 109.311 35.7194C109.415 35.8311 109.497 35.9623 109.551 36.1055C109.605 36.2487 109.63 36.4011 109.625 36.554C109.62 36.7069 109.584 36.8573 109.521 36.9967C109.458 37.136 109.368 37.2615 109.256 37.3661C109.145 37.4706 109.014 37.5522 108.87 37.606L107.146 38.2561C107.014 38.3063 106.873 38.3316 106.731 38.3306Z" fill="#323544"/>
<path d="M123.065 36.6264C123.006 36.6264 122.948 36.6217 122.89 36.6124L121.066 36.3351C120.91 36.3173 120.76 36.2684 120.624 36.1911C120.487 36.1139 120.368 36.01 120.273 35.8856C120.178 35.7613 120.109 35.619 120.07 35.4673C120.031 35.3156 120.023 35.1576 120.046 35.0028C120.07 34.848 120.124 34.6995 120.207 34.5662C120.289 34.4329 120.397 34.3176 120.525 34.227C120.653 34.1365 120.797 34.0727 120.95 34.0394C121.103 34.0061 121.261 34.0039 121.415 34.0331L123.24 34.3104C123.529 34.3556 123.791 34.5082 123.973 34.7377C124.155 34.9673 124.244 35.257 124.222 35.549C124.2 35.8411 124.068 36.1142 123.854 36.3139C123.64 36.5135 123.358 36.6251 123.065 36.6264Z" fill="#323544"/>
<path d="M171.355 40.7208C171.355 40.7208 176.4 39.6187 178.884 44.5373C181.367 49.4559 177.185 55.2994 177.185 55.2994C177.185 55.2994 171.533 54.421 171.36 50.8468C171.36 50.8468 173.31 50.509 172.672 48.7988C172.033 47.0886 170.479 48.8384 170.479 48.8384C170.479 48.8384 167.32 45.2153 171.355 40.7208Z" fill="white"/>
<path d="M177.185 56.1168C177.144 56.1203 177.103 56.1203 177.062 56.1168C176.803 56.0772 170.747 55.0869 170.554 50.8953C170.545 50.6968 170.608 50.5019 170.733 50.347C170.857 50.1921 171.034 50.088 171.23 50.0542C171.402 50.0215 171.819 49.8748 171.95 49.6418C171.986 49.5531 172.003 49.4577 171.999 49.3619C171.995 49.2662 171.97 49.1725 171.926 49.0872C171.901 49.0108 171.865 48.9386 171.819 48.8729C171.545 48.9863 171.301 49.1618 171.106 49.3855C171.028 49.4701 170.933 49.5377 170.828 49.5842C170.722 49.6307 170.609 49.6551 170.493 49.6557C170.378 49.6551 170.264 49.6301 170.16 49.5823C170.055 49.5345 169.961 49.465 169.885 49.3785C169.848 49.3365 166.29 45.1542 170.759 40.1797C170.874 40.0532 171.025 39.9653 171.192 39.9281C171.248 39.9164 176.885 38.7631 179.62 44.1733C182.297 49.4693 178.04 55.5226 177.858 55.7789C177.781 55.8849 177.68 55.971 177.563 56.0297C177.446 56.0885 177.316 56.1184 177.185 56.1168ZM172.292 51.3962C172.861 53.2905 175.652 54.1223 176.812 54.3926C177.663 53.0086 180.028 48.5909 178.166 44.9049C176.279 41.177 172.763 41.3494 171.789 41.4799C169.459 44.2316 170.107 46.5336 170.675 47.6263C171.101 47.3233 171.625 47.1926 172.143 47.2605C172.558 47.3397 173.122 47.6193 173.455 48.5141C173.59 48.8213 173.652 49.1555 173.638 49.4907C173.623 49.826 173.532 50.1535 173.371 50.4479C173.114 50.868 172.734 51.199 172.283 51.3962H172.292Z" fill="#323544"/>
<path d="M176.082 51.0758C175.875 51.0757 175.676 50.9969 175.525 50.8554C175.374 50.714 175.282 50.5204 175.268 50.3139C174.721 42.0309 166.566 36.8909 166.491 36.8397C166.306 36.7263 166.173 36.5439 166.122 36.3326C166.072 36.1213 166.107 35.8985 166.22 35.7131C166.333 35.5277 166.516 35.395 166.727 35.3441C166.938 35.2932 167.161 35.3283 167.347 35.4417C167.712 35.6747 176.294 41.0639 176.899 50.1951C176.907 50.3021 176.893 50.4094 176.859 50.511C176.824 50.6126 176.77 50.7064 176.7 50.7871C176.629 50.8679 176.544 50.9339 176.447 50.9814C176.351 51.0289 176.247 51.0571 176.14 51.0642L176.082 51.0758Z" fill="#323544"/>
<path d="M155.779 131.692C157.004 134.171 160.779 134.285 162.974 132.605C165.168 130.925 166.175 128.155 167.072 125.539L168.393 121.678C165.819 123.894 161.797 122.663 158.577 123.742C157.176 124.243 155.965 125.169 155.114 126.39C154.263 127.611 153.814 129.067 153.828 130.555" fill="white"/>
<path d="M159.514 134.545C159.05 134.546 158.588 134.494 158.137 134.389C157.48 134.257 156.861 133.979 156.326 133.575C155.791 133.172 155.353 132.654 155.045 132.059C154.949 131.865 154.934 131.641 155.004 131.436C155.073 131.231 155.221 131.062 155.415 130.966C155.609 130.87 155.834 130.856 156.038 130.925C156.243 130.995 156.412 131.143 156.508 131.337C156.71 131.716 156.994 132.045 157.34 132.3C157.686 132.555 158.085 132.729 158.507 132.809C159.19 132.956 159.896 132.957 160.578 132.811C161.261 132.665 161.905 132.376 162.468 131.963C164.544 130.377 165.511 127.55 166.289 125.281L166.923 123.417C165.595 123.883 164.127 123.939 162.711 124C161.294 124.06 160.005 124.118 158.824 124.515C157.589 124.961 156.522 125.779 155.771 126.856C155.02 127.933 154.621 129.217 154.63 130.531C154.633 130.638 154.615 130.744 154.577 130.844C154.539 130.945 154.482 131.036 154.409 131.114C154.335 131.192 154.247 131.255 154.149 131.299C154.052 131.343 153.946 131.367 153.839 131.37C153.732 131.374 153.625 131.356 153.525 131.318C153.425 131.28 153.333 131.222 153.255 131.149C153.177 131.075 153.115 130.987 153.071 130.89C153.027 130.792 153.002 130.687 152.999 130.579C152.971 128.914 153.468 127.282 154.421 125.915C155.373 124.549 156.732 123.517 158.305 122.967C159.703 122.501 161.194 122.434 162.638 122.371C164.633 122.285 166.518 122.203 167.848 121.057C167.984 120.94 168.154 120.872 168.333 120.862C168.512 120.852 168.689 120.9 168.837 121.001C168.985 121.101 169.096 121.248 169.152 121.417C169.209 121.587 169.209 121.771 169.151 121.94L167.829 125.801C166.981 128.28 165.924 131.365 163.456 133.257C162.313 134.096 160.932 134.547 159.514 134.545Z" fill="#323544"/>
<path d="M152.386 131.711C152.126 131.711 151.865 131.704 151.604 131.69C151.387 131.678 151.184 131.581 151.04 131.42C150.895 131.259 150.82 131.047 150.831 130.831C150.843 130.615 150.94 130.412 151.101 130.267C151.262 130.122 151.474 130.047 151.69 130.059C153.626 130.147 155.561 129.842 157.377 129.164C159.192 128.485 160.852 127.446 162.256 126.109C162.33 126.024 162.421 125.954 162.523 125.905C162.625 125.857 162.736 125.83 162.85 125.827C162.963 125.823 163.075 125.843 163.18 125.886C163.285 125.928 163.38 125.992 163.459 126.073C163.538 126.154 163.599 126.251 163.638 126.357C163.678 126.463 163.695 126.576 163.688 126.689C163.681 126.802 163.651 126.912 163.6 127.013C163.548 127.114 163.476 127.203 163.389 127.274C160.421 130.101 156.485 131.688 152.386 131.711Z" fill="#323544"/>
<path d="M48.2606 37.1931C45.3015 37.4914 42.883 34.3506 43.0298 31.5825C43.1766 28.8145 45.0242 26.4566 46.8044 24.299L49.4302 21.0977C49.0365 24.4738 52.6013 27.2232 53.6242 30.5364C54.5119 33.4279 53.1582 36.7132 50.4741 38.237" fill="white"/>
<path d="M50.4696 39.0518C50.2892 39.052 50.1139 38.9923 49.9711 38.8823C49.8282 38.7722 49.7259 38.6178 49.6801 38.4434C49.6343 38.269 49.6476 38.0843 49.7179 37.9182C49.7883 37.7522 49.9117 37.6141 50.0688 37.5256C52.4221 36.1952 53.6127 33.2944 52.8392 30.7687C52.4664 29.5548 51.6742 28.3549 50.9076 27.1945C50.0572 25.9061 49.1881 24.5873 48.7966 23.1497L47.4336 24.811C45.8958 26.6889 43.9806 29.0259 43.8431 31.6215C43.7755 32.9006 44.3883 34.3499 45.3995 35.3168C46.2197 36.0974 47.2053 36.4818 48.1792 36.377C48.3955 36.3553 48.6115 36.4205 48.7797 36.5582C48.948 36.6958 49.0546 36.8946 49.0762 37.1109C49.0979 37.3272 49.0327 37.5432 48.895 37.7114C48.7574 37.8797 48.5586 37.9863 48.3423 38.008C46.8907 38.1547 45.4461 37.6212 44.2742 36.5051C42.9111 35.205 42.1213 33.3037 42.2145 31.5446C42.3799 28.4154 44.4839 25.8478 46.1754 23.7858L48.8013 20.5844C48.9131 20.4486 49.0658 20.3525 49.2366 20.3106C49.4075 20.2687 49.5873 20.2831 49.7493 20.3518C49.9112 20.4205 50.0466 20.5396 50.1353 20.6916C50.224 20.8435 50.2611 21.0201 50.2412 21.1948C50.0409 22.926 51.1243 24.5663 52.273 26.3068C53.1024 27.5627 53.9599 28.8698 54.4002 30.3004C55.3951 33.5344 53.8783 37.253 50.8727 38.9493C50.7497 39.0183 50.6106 39.0537 50.4696 39.0518Z" fill="#323544"/>
<path d="M51.5248 41.0744C51.4027 41.0746 51.2821 41.0472 51.172 40.9944C51.0618 40.9415 50.965 40.8646 50.8887 40.7692C48.0555 37.2533 46.8159 32.6143 47.5778 28.383C47.6162 28.1702 47.7375 27.9812 47.9151 27.8578C48.0927 27.7343 48.3121 27.6865 48.525 27.7248C48.7379 27.7631 48.9268 27.8844 49.0502 28.0621C49.1737 28.2397 49.2215 28.4591 49.1832 28.6719C48.5052 32.4535 49.6166 36.5939 52.1586 39.7463C52.2544 39.8663 52.3145 40.0108 52.332 40.1634C52.3495 40.3159 52.3237 40.4703 52.2576 40.6088C52.1915 40.7474 52.0877 40.8645 51.9581 40.9469C51.8285 41.0292 51.6784 41.0734 51.5248 41.0744Z" fill="#323544"/>
<path d="M73.5435 107.072L17.0965 94.361C15.162 93.9254 13.2406 95.1405 12.805 97.0751L4.8029 132.612C4.36729 134.547 5.58241 136.468 7.51694 136.904L63.9639 149.614C65.8984 150.05 67.8198 148.835 68.2554 146.9L76.2575 111.363C76.6931 109.429 75.478 107.507 73.5435 107.072Z" fill="white"/>
<path d="M64.7708 150.515C64.4423 150.516 64.1148 150.479 63.7945 150.406L7.34617 137.698C6.78163 137.572 6.24756 137.335 5.77455 137.002C5.30153 136.669 4.89885 136.246 4.58958 135.757C4.28031 135.268 4.0705 134.723 3.97219 134.153C3.87388 133.583 3.88898 132.999 4.01663 132.435L12.0154 96.8956C12.1424 96.3311 12.3793 95.7971 12.7127 95.3243C13.0461 94.8514 13.4694 94.4488 13.9584 94.1396C14.4474 93.8304 14.9926 93.6206 15.5627 93.5222C16.1329 93.4238 16.7168 93.4387 17.2812 93.566L73.7295 106.274C74.8687 106.532 75.8591 107.231 76.4837 108.218C77.1082 109.205 77.316 110.4 77.0614 111.539L69.0603 147.076C68.841 148.051 68.2971 148.922 67.5177 149.547C66.7383 150.172 65.7697 150.513 64.7708 150.515ZM16.3073 95.0875C15.6779 95.089 15.0677 95.3042 14.5766 95.6979C14.0856 96.0916 13.7428 96.6404 13.6045 97.2544L5.60801 132.791C5.52781 133.147 5.51845 133.514 5.58045 133.873C5.64245 134.232 5.77461 134.576 5.96936 134.884C6.1641 135.191 6.41763 135.458 6.71544 135.668C7.01325 135.878 7.34951 136.027 7.70499 136.107L64.1533 148.812C64.871 148.973 65.6231 148.842 66.2447 148.449C66.8662 148.056 67.3065 147.432 67.4689 146.715L75.463 111.181C75.6237 110.463 75.4932 109.711 75.1001 109.089C74.707 108.468 74.0834 108.027 73.3661 107.865L16.9224 95.1574C16.7214 95.1112 16.5158 95.0877 16.3096 95.0875H16.3073Z" fill="#323544"/>
<path d="M14.127 95.71L39.6379 128.222L76.137 109.671" fill="white"/>
<path d="M39.6371 129.039C39.5133 129.039 39.3911 129.011 39.2797 128.957C39.1683 128.903 39.0706 128.824 38.9941 128.727L13.4832 96.214C13.4116 96.1305 13.3577 96.0333 13.3247 95.9284C13.2917 95.8235 13.2802 95.713 13.2911 95.6035C13.3019 95.494 13.3347 95.3879 13.3876 95.2915C13.4405 95.195 13.5124 95.1103 13.5989 95.0423C13.6854 94.9744 13.7847 94.9247 13.891 94.8961C13.9972 94.8676 14.1081 94.8608 14.217 94.8762C14.3259 94.8917 14.4306 94.929 14.5247 94.9859C14.6188 95.0428 14.7004 95.1182 14.7646 95.2075L39.8655 127.191L75.7681 108.945C75.9604 108.851 76.1819 108.837 76.3847 108.905C76.5875 108.973 76.7555 109.118 76.8524 109.309C76.9493 109.5 76.9673 109.721 76.9027 109.925C76.838 110.129 76.6958 110.299 76.5067 110.399L40.0053 128.95C39.8911 129.008 39.7651 129.038 39.6371 129.039Z" fill="#323544"/>
<path d="M6.93646 126.224C6.75595 126.223 6.58069 126.163 6.43816 126.052C6.29562 125.941 6.19387 125.786 6.14883 125.612C6.1038 125.437 6.11804 125.252 6.18931 125.086C6.26059 124.92 6.38488 124.783 6.5427 124.695L27.3098 113.208C27.4036 113.152 27.5078 113.116 27.6161 113.101C27.7245 113.085 27.8347 113.092 27.9403 113.121C28.0459 113.149 28.1447 113.199 28.2308 113.266C28.317 113.333 28.3887 113.417 28.4416 113.513C28.4946 113.609 28.5278 113.714 28.5393 113.823C28.5507 113.932 28.5402 114.042 28.5083 114.146C28.4764 114.251 28.4238 114.348 28.3536 114.432C28.2834 114.516 28.197 114.584 28.0996 114.634L7.33256 126.121C7.21146 126.189 7.07508 126.224 6.93646 126.224Z" fill="#323544"/>
<path d="M69.7773 139.864C69.636 139.864 69.4972 139.827 69.3747 139.757C69.2521 139.686 69.1499 139.585 69.0783 139.464L57.1954 119.363C57.1313 119.271 57.0869 119.167 57.0648 119.057C57.0427 118.947 57.0435 118.834 57.0672 118.725C57.0908 118.615 57.1368 118.511 57.2022 118.421C57.2676 118.33 57.351 118.253 57.4473 118.196C57.5436 118.138 57.6507 118.102 57.7619 118.088C57.873 118.073 57.9859 118.082 58.0934 118.114C58.201 118.145 58.3009 118.199 58.3869 118.27C58.4729 118.342 58.5432 118.431 58.5934 118.531L70.4763 138.634C70.5493 138.758 70.5884 138.899 70.5896 139.042C70.5908 139.186 70.5541 139.327 70.4832 139.452C70.4122 139.577 70.3096 139.681 70.1857 139.753C70.0617 139.825 69.9209 139.864 69.7773 139.864Z" fill="#323544"/>
<path d="M25.336 53.6076L3.0901 62.0492C2.32733 62.3386 1.94362 63.1916 2.23307 63.9544L7.54748 77.9594C7.83692 78.7221 8.6899 79.1058 9.45267 78.8164L31.6986 70.3748C32.4614 70.0854 32.8451 69.2324 32.5556 68.4696L27.2412 54.4646C26.9518 53.7019 26.0988 53.3182 25.336 53.6076Z" fill="white"/>
<path d="M25.8562 53.5187C26.1556 53.519 26.4479 53.6103 26.6942 53.7805C26.9405 53.9507 27.1293 54.1917 27.2356 54.4716L32.5502 68.4795C32.6887 68.8456 32.6762 69.2518 32.5154 69.6087C32.3547 69.9656 32.0588 70.2441 31.6928 70.3831L9.44619 78.8246C9.07972 78.9631 8.67325 78.9507 8.31595 78.7899C7.95865 78.6292 7.67969 78.3333 7.54027 77.9671L2.22792 63.9616C2.0886 63.5955 2.10042 63.189 2.26078 62.8316C2.42114 62.4742 2.71691 62.1951 3.08302 62.0557L25.332 53.6165C25.4994 53.5524 25.677 53.5193 25.8562 53.5187ZM25.8562 51.8877C25.4796 51.8873 25.106 51.956 24.7541 52.0904L2.50519 60.5319C1.73473 60.8244 1.11194 61.4108 0.773764 62.1623C0.435585 62.9138 0.409696 63.7689 0.701788 64.5395L6.02812 78.5403C6.25266 79.127 6.64897 79.6323 7.16524 79.9902C7.68152 80.3481 8.29376 80.542 8.92195 80.5464C9.29861 80.5469 9.67216 80.4781 10.024 80.3437L32.273 71.9022C33.0426 71.6088 33.6645 71.0221 34.0021 70.2708C34.3397 69.5195 34.3656 68.665 34.074 67.8946L28.7617 53.8891C28.5351 53.3018 28.1366 52.7966 27.6182 52.4395C27.0998 52.0824 26.4857 51.8901 25.8562 51.8877Z" fill="#323544"/>
<path d="M2.37109 63.1893L18.4945 68.5576L26.8102 53.916" fill="white"/>
<path d="M18.4938 69.3719C18.4067 69.3716 18.3201 69.3575 18.2375 69.33L2.1117 63.971C2.01012 63.9371 1.91622 63.8834 1.83536 63.8132C1.75451 63.7429 1.68828 63.6574 1.64047 63.5616C1.59265 63.4657 1.56418 63.3614 1.55669 63.2546C1.54919 63.1477 1.56281 63.0404 1.59678 62.9388C1.63074 62.8373 1.68438 62.7434 1.75463 62.6625C1.82489 62.5817 1.91038 62.5154 2.00622 62.4676C2.10207 62.4198 2.2064 62.3913 2.31324 62.3838C2.42009 62.3763 2.52737 62.39 2.62896 62.4239L18.1163 67.5802L26.1011 53.5164C26.208 53.3283 26.3853 53.1903 26.594 53.1328C26.6973 53.1044 26.8052 53.0965 26.9115 53.1098C27.0179 53.123 27.1205 53.1571 27.2137 53.21C27.3069 53.263 27.3887 53.3337 27.4545 53.4183C27.5204 53.5028 27.5689 53.5995 27.5973 53.7029C27.6258 53.8062 27.6336 53.9141 27.6203 54.0204C27.6071 54.1267 27.573 54.2294 27.5201 54.3226L19.2044 68.9642C19.1325 69.0888 19.0288 69.1922 18.904 69.2638C18.7792 69.3354 18.6377 69.3727 18.4938 69.3719Z" fill="#323544"/>
<path d="M6.63522 75.8227C6.49505 75.8226 6.35727 75.7864 6.23518 75.7175C6.11309 75.6487 6.01081 75.5495 5.93821 75.4296C5.86562 75.3097 5.82515 75.1731 5.82072 75.033C5.81629 74.8929 5.84805 74.754 5.91293 74.6298L10.4331 65.9786C10.4827 65.8836 10.5504 65.7993 10.6326 65.7305C10.7147 65.6617 10.8097 65.6097 10.9119 65.5776C11.0141 65.5454 11.1217 65.5338 11.2284 65.5432C11.3352 65.5526 11.439 65.583 11.534 65.6326C11.629 65.6822 11.7133 65.7499 11.7821 65.8321C11.8509 65.9142 11.9029 66.0092 11.935 66.1114C11.9671 66.2136 11.9788 66.3212 11.9694 66.4279C11.9599 66.5347 11.9296 66.6385 11.88 66.7335L7.35984 75.3847C7.29053 75.5169 7.18637 75.6276 7.05863 75.7048C6.9309 75.782 6.78448 75.8228 6.63522 75.8227Z" fill="#323544"/>
<path d="M31.2891 66.2545C31.1654 66.2542 31.0435 66.2255 30.9326 66.1706L22.2954 61.9766C22.199 61.9298 22.1128 61.8645 22.0417 61.7843C21.9705 61.7042 21.9159 61.6109 21.8808 61.5096C21.8458 61.4083 21.831 61.3012 21.8374 61.1942C21.8437 61.0873 21.8711 60.9826 21.9179 60.8862C21.9647 60.7898 22.0301 60.7036 22.1102 60.6325C22.1904 60.5613 22.2837 60.5067 22.385 60.4716C22.4862 60.4366 22.5934 60.4218 22.7004 60.4282C22.8073 60.4346 22.912 60.4619 23.0084 60.5088L31.6572 64.7027C31.8234 64.7832 31.9574 64.9177 32.0372 65.0843C32.117 65.2508 32.1379 65.4395 32.0965 65.6195C32.0551 65.7995 31.9538 65.9601 31.8093 66.075C31.6647 66.1899 31.4854 66.2524 31.3007 66.2521L31.2891 66.2545Z" fill="#323544"/>
<path d="M131.28 144.722L78.1983 173.509C76.8122 174.261 75.1842 174.432 73.6723 173.983C72.1605 173.535 70.8886 172.505 70.1365 171.119L50.0987 134.191C49.614 133.297 49.3663 132.294 49.3794 131.278C49.3924 130.261 49.6658 129.265 50.1733 128.384L67.1379 98.9802C67.6717 98.0559 68.4444 97.2923 69.3751 96.7696C70.3057 96.2469 71.3598 95.9843 72.4269 96.0095L108.607 96.7387C109.657 96.7601 110.682 97.0591 111.579 97.6055C112.475 98.1519 113.211 98.9261 113.712 99.8493L133.68 136.663C134.43 138.05 134.598 139.678 134.148 141.189C133.698 142.701 132.666 143.971 131.28 144.722Z" fill="white"/>
<path d="M75.3738 175.053C74.7196 175.052 74.069 174.957 73.4422 174.769C72.5897 174.519 71.7954 174.101 71.1054 173.541C70.4155 172.981 69.8436 172.29 69.423 171.507L49.3852 134.579C48.8386 133.562 48.5597 132.422 48.5748 131.267C48.5899 130.112 48.8984 128.979 49.4714 127.976L66.436 98.572C67.0411 97.5242 67.9165 96.6582 68.9706 96.0643C70.0248 95.4704 71.219 95.1705 72.4287 95.1958L108.616 95.9228C109.809 95.9483 110.975 96.2888 111.995 96.9099C113.014 97.5311 113.852 98.4107 114.422 99.4597L134.39 136.273C135.242 137.85 135.435 139.701 134.924 141.419C134.414 143.138 133.243 144.583 131.668 145.439L78.5891 174.231C77.603 174.77 76.4975 175.052 75.3738 175.053ZM72.2982 96.8245C71.3977 96.8238 70.513 97.0603 69.7329 97.5102C68.9529 97.9601 68.3052 98.6076 67.8549 99.3874L50.8927 128.792C50.4572 129.552 50.2225 130.411 50.2106 131.288C50.1988 132.164 50.4103 133.029 50.8251 133.801L70.8629 170.729C71.1837 171.322 71.6181 171.845 72.1414 172.27C72.6646 172.694 73.2664 173.011 73.9124 173.203C74.5584 173.395 75.2358 173.457 75.906 173.387C76.5761 173.317 77.2258 173.115 77.8179 172.793L130.892 144.007C131.485 143.686 132.008 143.251 132.433 142.728C132.857 142.204 133.174 141.602 133.365 140.957C133.557 140.311 133.619 139.633 133.549 138.963C133.478 138.293 133.276 137.643 132.955 137.052L112.989 100.238C112.556 99.4417 111.921 98.7741 111.147 98.3027C110.374 97.8313 109.489 97.5729 108.583 97.5538L72.4031 96.8245H72.2982Z" fill="#2B2730"/>
<path d="M89.5757 73.3582L41.1464 99.6313C39.9836 100.262 39.5524 101.716 40.1832 102.879L70.5594 158.871C71.1902 160.034 72.6442 160.465 73.8069 159.835L122.236 133.562C123.399 132.931 123.83 131.477 123.199 130.314L92.8232 74.3214C92.1924 73.1586 90.7385 72.7274 89.5757 73.3582Z" fill="white"/>
<path d="M90.714 73.0878C91.1441 73.0896 91.5658 73.2071 91.9348 73.4281C92.3038 73.6491 92.6064 73.9653 92.811 74.3437L123.194 130.331C123.496 130.889 123.564 131.545 123.384 132.154C123.203 132.763 122.788 133.276 122.229 133.579L73.8007 159.847C73.5242 159.997 73.2207 160.092 72.9076 160.125C72.5945 160.158 72.278 160.129 71.9761 160.04C71.6742 159.95 71.3929 159.802 71.1483 159.604C70.9036 159.406 70.7005 159.161 70.5504 158.885L40.1815 102.891C39.8806 102.333 39.8129 101.679 39.9932 101.071C40.1736 100.464 40.5873 99.9526 41.1438 99.6495L89.5747 73.3744C89.9238 73.1828 90.3158 73.0826 90.714 73.0831V73.0878ZM90.714 71.4521C90.0441 71.4534 89.3851 71.6215 88.7965 71.9414L40.3656 98.2096C39.4273 98.7192 38.7297 99.5804 38.4261 100.604C38.1225 101.628 38.2376 102.73 38.7462 103.669L69.1175 159.66C69.3686 160.126 69.709 160.538 70.1194 160.872C70.5297 161.206 71.0019 161.456 71.509 161.608C72.016 161.759 72.5479 161.809 73.0742 161.755C73.6006 161.701 74.1111 161.543 74.5766 161.291L123.008 135.014C123.944 134.502 124.64 133.64 124.943 132.617C125.245 131.593 125.13 130.491 124.622 129.552L94.2556 73.5538C93.9087 72.9178 93.3965 72.3873 92.7732 72.0182C92.1499 71.6491 91.4384 71.4552 90.714 71.4568V71.4521Z" fill="#323544"/>
<path d="M89.5743 73.3756L47.7559 96.0579L53.6484 127.725L58.3246 136.346C58.7286 136.388 59.1367 136.372 59.5362 136.299L109.295 127.037C110.395 126.832 111.368 126.199 112.002 125.277C112.635 124.355 112.876 123.219 112.671 122.119L109.503 105.091L92.8223 74.3356C92.6722 74.0591 92.4691 73.8149 92.2246 73.617C91.9801 73.419 91.699 73.2713 91.3973 73.1821C91.0957 73.093 90.7794 73.0641 90.4665 73.0974C90.1537 73.1306 89.8505 73.2251 89.5743 73.3756Z" fill="white"/>
<path d="M49.4665 61.034L100.209 51.5928C101.309 51.3881 102.446 51.6288 103.369 52.262C104.291 52.8952 104.925 53.8691 105.13 54.9693L116.628 116.767C116.832 117.867 116.592 119.004 115.958 119.926C115.325 120.849 114.351 121.482 113.251 121.687L63.491 130.946C62.3908 131.15 61.2543 130.909 60.3316 130.276C59.4089 129.643 58.7755 128.669 58.5708 127.569L46.8902 64.791C46.8125 64.3752 46.8176 63.9481 46.905 63.5342C46.9924 63.1202 47.1606 62.7276 47.3999 62.3787C47.6391 62.0298 47.9448 61.7315 48.2994 61.5007C48.654 61.27 49.0506 61.1114 49.4665 61.034Z" fill="white"/>
<path d="M100.99 51.5157C101.975 51.5176 102.927 51.8632 103.684 52.4928C104.44 53.1224 104.953 53.9966 105.133 54.9641L116.634 116.76C116.838 117.86 116.597 118.996 115.964 119.918C115.331 120.84 114.357 121.474 113.258 121.678L63.4987 130.94C62.954 131.042 62.3945 131.036 61.8522 130.921C61.31 130.807 60.7957 130.586 60.3388 130.273C59.8819 129.959 59.4913 129.558 59.1895 129.093C58.8878 128.629 58.6807 128.109 58.5801 127.564L46.8953 64.7873C46.8177 64.3715 46.8229 63.9444 46.9105 63.5306C46.998 63.1168 47.1663 62.7242 47.4056 62.3754C47.6449 62.0266 47.9506 61.7284 48.3052 61.4978C48.6598 61.2672 49.0563 61.1087 49.4722 61.0314L100.212 51.588C100.469 51.541 100.729 51.5168 100.99 51.5157ZM100.99 49.8848C100.629 49.8856 100.269 49.9192 99.9139 49.985L49.1717 59.4283C47.9077 59.6654 46.7894 60.3941 46.0621 61.4547C45.3348 62.5153 45.0579 63.8211 45.2922 65.0855L56.9747 127.862C57.2243 129.204 57.9352 130.417 58.9845 131.29C60.0338 132.163 61.3554 132.642 62.7205 132.643C63.0816 132.642 63.4419 132.609 63.7969 132.543L113.556 123.281C114.311 123.141 115.032 122.854 115.676 122.435C116.32 122.016 116.875 121.475 117.31 120.842C117.745 120.208 118.05 119.495 118.209 118.744C118.368 117.992 118.378 117.217 118.237 116.462L106.736 54.6659C106.487 53.3236 105.776 52.1108 104.727 51.2376C103.677 50.3644 102.356 49.8858 100.99 49.8848Z" fill="#323544"/>
<path d="M99.0337 60.0596L55.4307 67.7401C54.0861 67.9769 53.1881 69.259 53.4249 70.6036L53.5118 71.0969C53.7487 72.4415 55.0307 73.3395 56.3753 73.1027L99.9783 65.4222C101.323 65.1853 102.221 63.9033 101.984 62.5587L101.897 62.0653C101.66 60.7207 100.378 59.8227 99.0337 60.0596Z" fill="white"/>
<path d="M100.629 69.1348L57.0264 76.8153C55.6818 77.0521 54.7838 78.3342 55.0206 79.6788L55.1076 80.1721C55.3444 81.5167 56.6264 82.4147 57.971 82.1779L101.574 74.4974C102.919 74.2605 103.817 72.9785 103.58 71.6339L103.493 71.1405C103.256 69.7959 101.974 68.8979 100.629 69.1348Z" fill="white"/>
<path d="M102.233 78.209L58.6299 85.8895C57.2853 86.1264 56.3873 87.4084 56.6242 88.753L56.7111 89.2463C56.9479 90.5909 58.2299 91.489 59.5745 91.2521L103.177 83.5716C104.522 83.3347 105.42 82.0527 105.183 80.7081L105.096 80.2148C104.86 78.8701 103.577 77.9721 102.233 78.209Z" fill="white"/>
<path d="M103.829 87.2861L60.2256 94.9667C58.881 95.2035 57.983 96.4855 58.2199 97.8301L58.3068 98.3235C58.5436 99.6681 59.8256 100.566 61.1702 100.329L104.773 92.6487C106.118 92.4119 107.016 91.1299 106.779 89.7853L106.692 89.2919C106.455 87.9473 105.173 87.0493 103.829 87.2861Z" fill="white"/>
<path d="M105.424 96.3603L61.8213 104.041C60.4767 104.278 59.5787 105.56 59.8156 106.904L59.9025 107.398C60.1393 108.742 61.4213 109.64 62.7659 109.403L106.369 101.723C107.713 101.486 108.612 100.204 108.375 98.8595L108.288 98.3661C108.051 97.0215 106.769 96.1235 105.424 96.3603Z" fill="white"/>
<path d="M107.028 105.434L63.4249 113.114C62.0803 113.351 61.1822 114.633 61.4191 115.978L61.506 116.471C61.7428 117.816 63.0249 118.714 64.3695 118.477L107.972 110.796C109.317 110.559 110.215 109.277 109.978 107.933L109.891 107.439C109.654 106.095 108.372 105.197 107.028 105.434Z" fill="white"/>
<path d="M55.6543 144.429L92.5891 136.729L119.195 109.969L135.246 139.559C135.412 139.866 135.516 140.201 135.552 140.547C135.587 140.894 135.555 141.244 135.455 141.577C135.356 141.911 135.191 142.221 134.971 142.491C134.752 142.761 134.481 142.985 134.175 143.15L75.303 175.085C74.9974 175.251 74.662 175.355 74.3161 175.391C73.9702 175.427 73.6205 175.395 73.2871 175.296C72.9536 175.197 72.6429 175.034 72.3727 174.815C72.1026 174.596 71.8782 174.326 71.7125 174.02L55.6543 144.429Z" fill="white"/>
<path d="M119.197 109.969L135.248 139.56C135.414 139.866 135.518 140.201 135.554 140.548C135.589 140.894 135.557 141.244 135.457 141.577C135.358 141.911 135.193 142.221 134.973 142.491C134.754 142.761 134.483 142.985 134.177 143.15L75.305 175.085C74.9994 175.251 74.6641 175.355 74.3181 175.392C73.9721 175.428 73.6223 175.396 73.2888 175.297C72.9553 175.199 72.6445 175.035 72.3744 174.816C72.1042 174.596 71.88 174.326 71.7145 174.02L55.6563 144.429L92.5911 136.729L119.197 109.969ZM119.197 108.338C118.981 108.337 118.766 108.379 118.566 108.462C118.366 108.545 118.185 108.667 118.032 108.82L91.7896 135.233L55.3324 142.833C55.0834 142.885 54.85 142.994 54.6507 143.152C54.4514 143.31 54.2919 143.513 54.1848 143.743C54.0777 143.974 54.0261 144.227 54.034 144.481C54.0419 144.735 54.1092 144.984 54.2304 145.207L70.2816 174.798C70.8223 175.796 71.7371 176.537 72.8246 176.86C73.9122 177.183 75.0835 177.061 76.0809 176.52L134.962 144.583C135.956 144.041 136.695 143.128 137.017 142.043C137.339 140.958 137.219 139.789 136.681 138.793L120.632 109.202C120.511 108.978 120.34 108.786 120.131 108.64C119.922 108.495 119.682 108.4 119.43 108.364C119.353 108.353 119.275 108.348 119.197 108.347V108.338Z" fill="#323544"/>
<path d="M73.1124 168.662L59.5333 143.624L55.6562 144.43L71.7051 174.021C71.8708 174.327 72.0952 174.597 72.3654 174.816C72.6355 175.035 72.9462 175.199 73.2797 175.298C73.6132 175.396 73.9628 175.429 74.3087 175.392C74.6546 175.356 74.99 175.252 75.2956 175.086L134.176 143.151C134.482 142.985 134.752 142.761 134.971 142.491C135.19 142.221 135.354 141.91 135.453 141.577C135.552 141.243 135.584 140.893 135.548 140.548C135.511 140.202 135.407 139.866 135.241 139.561L134.582 138.328L76.7029 169.727C76.3973 169.893 76.0619 169.997 75.716 170.033C75.3701 170.07 75.0205 170.038 74.687 169.939C74.3535 169.84 74.0429 169.676 73.7727 169.457C73.5025 169.238 73.2782 168.968 73.1124 168.662Z" fill="white"/>
<path d="M72.5566 158.177L86.0426 130.613C86.5426 129.593 87.3648 128.767 88.382 128.261C89.3992 127.756 90.5546 127.6 91.6694 127.817L118.788 133.104" fill="white"/>
<path d="M72.5549 158.994C72.4305 158.994 72.3078 158.965 72.1961 158.91C72.0022 158.815 71.854 158.647 71.7841 158.442C71.7142 158.238 71.7283 158.014 71.8233 157.82L85.3092 130.254C85.8892 129.072 86.8426 128.114 88.0219 127.528C89.2012 126.942 90.5407 126.761 91.8331 127.013L118.952 132.302C119.058 132.321 119.159 132.362 119.25 132.42C119.34 132.479 119.418 132.555 119.479 132.645C119.54 132.734 119.582 132.834 119.604 132.94C119.626 133.046 119.627 133.155 119.606 133.26C119.585 133.366 119.544 133.467 119.484 133.557C119.424 133.647 119.347 133.724 119.257 133.784C119.167 133.843 119.066 133.885 118.96 133.905C118.854 133.925 118.745 133.925 118.64 133.903L91.5116 128.614C90.5724 128.432 89.5996 128.565 88.7431 128.991C87.8867 129.417 87.1942 130.113 86.7724 130.972L73.2888 158.535C73.2215 158.673 73.117 158.788 72.9873 158.869C72.8577 158.951 72.7079 158.994 72.5549 158.994Z" fill="#323544"/>
<path d="M75.0951 92.1522C86.3174 92.1522 95.4149 83.0547 95.4149 71.8324C95.4149 60.6101 86.3174 51.5127 75.0951 51.5127C63.8728 51.5127 54.7754 60.6101 54.7754 71.8324C54.7754 83.0547 63.8728 92.1522 75.0951 92.1522Z" fill="white"/>
<path d="M75.1094 92.969C69.7897 92.9755 64.6632 90.9764 60.7522 87.3704C56.8413 83.7645 54.4334 78.8167 54.0089 73.514C53.5844 68.2114 55.1744 62.9436 58.4618 58.7613C61.7493 54.5791 66.4925 51.7898 71.7454 50.9498C76.9983 50.1099 82.3748 51.281 86.8025 54.2296C91.2302 57.1782 94.3836 61.6876 95.6337 66.8582C96.8839 72.0289 96.1389 77.4808 93.5474 82.1265C90.9559 86.7722 86.7084 90.2702 81.6519 91.9229C79.5395 92.6128 77.3316 92.9658 75.1094 92.969ZM75.1094 52.3179C70.3213 52.3038 65.6947 54.0479 62.1074 57.2192C58.5201 60.3905 56.2218 64.7684 55.6486 69.522C55.0754 74.2757 56.2672 79.0743 58.9978 83.0075C61.7284 86.9406 65.8078 89.7345 70.462 90.8589C75.1162 91.9834 80.0212 91.3602 84.2463 89.1077C88.4715 86.8551 91.7227 83.1299 93.383 78.6389C95.0434 74.1479 94.9974 69.2037 93.2537 64.7444C91.51 60.2851 88.19 56.6211 83.9237 54.4475C81.1947 53.0569 78.1769 52.3274 75.114 52.3179H75.1094Z" fill="#323544"/>
<path d="M75.0955 86.7311C83.3247 86.7311 89.9957 80.06 89.9957 71.8309C89.9957 63.6017 83.3247 56.9307 75.0955 56.9307C66.8664 56.9307 60.1953 63.6017 60.1953 71.8309C60.1953 80.06 66.8664 86.7311 75.0955 86.7311Z" fill="white"/>
<path d="M75.0783 87.5559C71.1186 87.5601 67.3027 86.0718 64.3915 83.3877C61.4803 80.7037 59.6876 77.021 59.3708 73.074C59.054 69.1269 60.2364 65.2055 62.6823 62.0915C65.1281 58.9774 68.6578 56.8996 72.5675 56.2721C76.4772 55.6447 80.4797 56.5139 83.7771 58.7062C87.0746 60.8986 89.4246 64.2532 90.3587 68.1011C91.2928 71.9491 90.7424 76.0078 88.8172 79.468C86.892 82.9282 83.7334 85.5357 79.9712 86.7707C78.3923 87.2908 76.7406 87.5558 75.0783 87.5559ZM75.1086 57.7322C73.6192 57.7331 72.1394 57.969 70.7236 58.4312C68.0755 59.2958 65.7434 60.9262 64.0219 63.1163C62.3005 65.3063 61.2671 67.9576 61.0524 70.7349C60.8378 73.5122 61.4515 76.2909 62.816 78.7194C64.1804 81.1479 66.2344 83.1173 68.7181 84.3786C71.2018 85.6398 74.0037 86.1363 76.7696 85.8051C79.5355 85.474 82.141 84.3301 84.2568 82.5182C86.3726 80.7063 87.9036 78.3077 88.6562 75.6257C89.4088 72.9437 89.3492 70.0987 88.485 67.4506C87.5614 64.6291 85.7715 62.1708 83.3698 60.4256C80.9682 58.6803 78.0773 57.737 75.1086 57.7299V57.7322Z" fill="#323544"/>
<path d="M73.393 63.7542C74.3017 65.1079 77.0394 74.4721 77.0394 74.4721C77.0394 74.4721 69.3971 68.4048 68.4861 67.0488C68.2698 66.7266 68.119 66.3649 68.0425 65.9845C67.9659 65.604 67.965 65.2122 68.0399 64.8314C68.1147 64.4506 68.2639 64.0883 68.4787 63.7652C68.6936 63.442 68.9701 63.1643 69.2923 62.948C69.6144 62.7317 69.9761 62.5809 70.3566 62.5044C70.737 62.4278 71.1288 62.4269 71.5096 62.5018C71.8904 62.5766 72.2527 62.7258 72.5759 62.9407C72.899 63.1555 73.1767 63.432 73.393 63.7542Z" fill="#CB730B"/>
<path d="M77.0402 75.2914C76.8558 75.291 76.6769 75.2287 76.5322 75.1144C75.74 74.4829 68.7641 68.9236 67.8111 67.5047C67.5256 67.094 67.3247 66.6306 67.2201 66.1415C67.1155 65.6524 67.1092 65.1474 67.2017 64.6559C67.2942 64.1644 67.4835 63.6961 67.7588 63.2785C68.034 62.8609 68.3895 62.5022 68.8047 62.2233C69.2199 61.9445 69.6864 61.751 70.1771 61.6543C70.6678 61.5575 71.1729 61.5593 71.6629 61.6596C72.1529 61.76 72.618 61.9568 73.0311 62.2387C73.4443 62.5205 73.7973 62.8818 74.0694 63.3014C75.0224 64.7203 77.5388 73.2807 77.823 74.2523C77.871 74.4187 77.865 74.596 77.806 74.7588C77.747 74.9216 77.6379 75.0616 77.4945 75.1586C77.3597 75.2472 77.2015 75.2935 77.0402 75.2914ZM70.9379 63.2618C70.5136 63.2606 70.0987 63.3873 69.7473 63.6252C69.5142 63.7819 69.3141 63.9829 69.1587 64.2169C69.0032 64.4509 68.8954 64.7132 68.8413 64.9888C68.7872 65.2644 68.7879 65.548 68.8434 65.8234C68.899 66.0988 69.0082 66.3605 69.1648 66.5936C69.6471 67.3136 72.774 69.9674 75.5047 72.1856C74.4748 68.8164 73.198 64.9184 72.7087 64.2007C72.5129 63.9114 72.249 63.6744 71.9403 63.5107C71.6316 63.347 71.2874 63.2615 70.9379 63.2618Z" fill="#CB730B"/>
<path d="M80.2236 80.953C81.307 80.953 82.1854 80.0746 82.1854 78.9911C82.1854 77.9076 81.307 77.0293 80.2236 77.0293C79.1401 77.0293 78.2617 77.9076 78.2617 78.9911C78.2617 80.0746 79.1401 80.953 80.2236 80.953Z" fill="#323544"/>
<path d="M80.2194 81.7705C79.6899 81.7699 79.1715 81.6179 78.7255 81.3324C78.2795 81.047 77.9244 80.6399 77.702 80.1593C77.4797 79.6787 77.3993 79.1446 77.4705 78.6199C77.5417 78.0951 77.7614 77.6017 78.1037 77.1977C78.4461 76.7936 78.8968 76.4959 79.4027 76.3396C79.9087 76.1833 80.4488 76.1748 80.9593 76.3153C81.4699 76.4558 81.9297 76.7393 82.2845 77.1324C82.6393 77.5255 82.8743 78.0119 82.9618 78.5341C83.0832 79.2605 82.9114 80.0053 82.4842 80.605C82.0569 81.2048 81.4092 81.6106 80.6831 81.7332C80.5298 81.7582 80.3747 81.7707 80.2194 81.7705ZM80.2194 77.8491C80.1561 77.8488 80.093 77.8542 80.0307 77.8654C79.8819 77.8894 79.7394 77.943 79.6118 78.023C79.4841 78.1031 79.3738 78.208 79.2874 78.3314C79.1998 78.4539 79.1372 78.5924 79.1033 78.7391C79.0693 78.8858 79.0647 79.0378 79.0895 79.1862C79.1144 79.3347 79.1684 79.4769 79.2483 79.6045C79.3283 79.7321 79.4326 79.8426 79.5554 79.9298C79.74 80.0608 79.9593 80.1342 80.1856 80.1407C80.4118 80.1472 80.635 80.0866 80.8269 79.9665C81.0188 79.8464 81.1708 79.6721 81.2638 79.4658C81.3568 79.2594 81.3866 79.0301 81.3494 78.8068C81.3049 78.54 81.1676 78.2977 80.9616 78.1224C80.7557 77.9472 80.4945 77.8504 80.2241 77.8491H80.2194Z" fill="#CB730B"/>
<path d="M91.6414 84.5854L90.3082 85.9927C89.5534 86.7896 89.5874 88.0475 90.3843 88.8024L106.403 103.977C107.2 104.732 108.458 104.698 109.212 103.901L110.546 102.493C111.301 101.697 111.266 100.439 110.47 99.6838L94.4511 84.5093C93.6542 83.7545 92.3963 83.7885 91.6414 84.5854Z" fill="#323544"/>
<path d="M107.768 105.327C107.051 105.327 106.361 105.052 105.841 104.558L89.8227 89.3968C89.5549 89.1441 89.3396 88.8411 89.1892 88.5051C89.0388 88.169 88.9563 87.8066 88.9463 87.4385C88.9364 87.0705 88.9992 86.7041 89.1312 86.3605C89.2632 86.0168 89.4618 85.7025 89.7155 85.4358L91.0483 84.0378C91.3007 83.7698 91.6036 83.5544 91.9396 83.4038C92.2756 83.2532 92.638 83.1704 93.006 83.1602C93.374 83.1501 93.7404 83.2127 94.0842 83.3445C94.428 83.4763 94.7423 83.6747 95.0092 83.9283L111.028 99.1011C111.566 99.6129 111.879 100.317 111.899 101.059C111.919 101.802 111.645 102.522 111.135 103.062L109.802 104.46C109.55 104.728 109.246 104.943 108.91 105.093C108.574 105.243 108.211 105.325 107.843 105.334L107.768 105.327ZM93.0893 84.7717H93.0567C92.9026 84.7754 92.7508 84.8097 92.61 84.8724C92.4692 84.9352 92.3423 85.0254 92.2366 85.1376L90.9038 86.5355C90.7971 86.6468 90.7136 86.7781 90.658 86.9219C90.6024 87.0656 90.5759 87.219 90.58 87.3731C90.5841 87.5272 90.6188 87.6789 90.6819 87.8195C90.7451 87.9601 90.8356 88.0868 90.9481 88.1922L106.962 103.377C107.073 103.484 107.205 103.568 107.349 103.623C107.493 103.679 107.646 103.706 107.801 103.702C107.955 103.697 108.107 103.663 108.248 103.599C108.389 103.536 108.516 103.445 108.621 103.332L109.951 101.934C110.058 101.823 110.142 101.692 110.197 101.548C110.253 101.404 110.279 101.251 110.275 101.097C110.271 100.943 110.236 100.791 110.173 100.65C110.11 100.51 110.02 100.383 109.907 100.278L93.8885 85.0933C93.6718 84.8868 93.384 84.7717 93.0847 84.7717H93.0893Z" fill="#CB730B"/>
<path d="M103.847 85.3454C101.83 83.556 98.4442 82.0298 95.6925 82.4772C92.8965 82.9315 90.5409 85.0402 88.5535 86.8785C87.2557 88.0738 86.0441 89.4764 85.6107 91.1866C85.1773 92.8968 85.7365 94.9612 87.2836 95.8093C88.416 96.4291 89.8816 96.3336 90.8881 97.1374C91.6896 97.7805 91.9995 98.836 92.4329 99.7656C93.0783 101.147 94.1827 102.424 95.6646 102.774C96.5644 102.955 97.4976 102.868 98.3487 102.524C100.476 101.739 102.077 99.9753 103.568 98.2721C104.733 96.9603 105.898 95.6043 106.478 93.9523C107.522 90.9443 106.229 87.4563 103.847 85.3454Z" fill="#8476BF"/>
<path d="M96.7047 82.4074C99.2351 82.4074 102.064 83.7797 103.848 85.3548C106.23 87.4657 107.523 90.9467 106.481 93.9617C105.91 95.6137 104.727 96.9697 103.571 98.2815C102.071 99.9847 100.479 101.748 98.352 102.534C97.7746 102.756 97.1625 102.874 96.5439 102.883C96.249 102.884 95.955 102.85 95.6679 102.783C94.186 102.434 93.0816 101.152 92.4362 99.775C92.0028 98.843 91.6929 97.7899 90.8914 97.1468C89.8849 96.3429 88.4193 96.4478 87.287 95.8187C85.7398 94.9706 85.19 92.9062 85.614 91.196C86.0381 89.4858 87.259 88.0832 88.5568 86.8879C90.5442 85.0565 92.9022 82.9409 95.6958 82.4866C96.0294 82.4329 96.3668 82.4065 96.7047 82.4074ZM96.7047 80.7764C96.2787 80.7761 95.8533 80.8096 95.4325 80.8766C92.0844 81.4194 89.4072 83.8869 87.4524 85.688C86.2618 86.783 84.6121 88.5049 84.032 90.7953C83.4681 93.0227 84.1368 95.9538 86.5041 97.2493C87.144 97.5735 87.8252 97.8087 88.5288 97.9483C89.0764 98.0788 89.5936 98.1999 89.8709 98.4143C90.1854 98.6659 90.4231 99.2228 90.6747 99.8123C90.7633 100.022 90.8565 100.239 90.959 100.458C91.9189 102.515 93.4987 103.939 95.2904 104.363C95.7012 104.46 96.1219 104.508 96.5439 104.507C97.3557 104.499 98.1596 104.347 98.9182 104.057C101.481 103.109 103.32 101.029 104.794 99.3533C105.987 98.0019 107.339 96.4688 108.024 94.4883C108.638 92.6448 108.629 90.6503 107.998 88.8125C107.405 87.0087 106.347 85.3928 104.932 84.1269C103.182 82.5751 99.983 80.7764 96.7047 80.7764Z" fill="#323544"/>
</svg>
