<svg width="25" height="25" viewBox="0 0 25 25" fill="none" xmlns="http://www.w3.org/2000/svg">
<path d="M17.9526 17.0757V10.3347C17.9499 9.48227 17.6101 8.66551 17.0073 8.06274C16.4045 7.45997 15.5878 7.12014 14.7353 7.11745H5.54314V6.2493C5.54311 4.995 6.03927 3.79161 6.92332 2.90182C7.80737 2.01203 9.00752 1.50809 10.2618 1.5H18.6778C19.9373 1.5 21.1454 2.00037 22.036 2.89104C22.9267 3.7817 23.4271 4.98971 23.4271 6.2493V12.3774C23.4244 13.6264 22.9299 14.8242 22.0505 15.7112C21.1712 16.5982 19.9778 17.1031 18.7288 17.1165L17.9526 17.0757ZM14.7353 5.58542C15.9949 5.58542 17.2029 6.08579 18.0936 6.97645C18.9843 7.86712 19.4846 9.07512 19.4846 10.3347V15.4415C20.1664 15.265 20.7714 14.8696 21.2068 14.3161C21.6422 13.7626 21.884 13.0816 21.895 12.3774V6.2493C21.8923 5.39685 21.5525 4.58009 20.9497 3.97732C20.347 3.37455 19.5302 3.03473 18.6778 3.03203H10.2618C9.52227 3.03113 8.80515 3.28583 8.23187 3.75301C7.6586 4.22019 7.2644 4.87114 7.11602 5.59563L14.7353 5.58542ZM10.5273 23.5C10.1937 23.5016 9.86466 23.4215 9.5691 23.2666C9.27354 23.1117 9.02043 22.8867 8.8319 22.6114L7.91268 21.3143C7.88084 21.2652 7.83679 21.2253 7.78486 21.1985C7.73293 21.1716 7.6749 21.1587 7.61649 21.1611H6.37043C5.74246 21.1678 5.11939 21.05 4.53727 20.8143C3.95515 20.5787 3.42555 20.2299 2.97911 19.7882C2.53268 19.3465 2.17827 18.8207 1.93641 18.2411C1.69455 17.6616 1.57003 17.0398 1.57007 16.4118V10.3347C1.57003 9.70671 1.69455 9.08493 1.93641 8.50536C2.17827 7.9258 2.53268 7.39996 2.97911 6.95827C3.42555 6.51658 3.95515 6.16782 4.53727 5.93217C5.11939 5.69652 5.74246 5.57866 6.37043 5.58542H14.7864C16.046 5.58542 17.254 6.08579 18.1447 6.97645C19.0353 7.86712 19.5357 9.07512 19.5357 10.3347V16.4118C19.5357 17.6714 19.0353 18.8794 18.1447 19.77C17.254 20.6607 16.046 21.1611 14.7864 21.1611H13.4382C13.3799 21.1597 13.3223 21.173 13.2705 21.1998C13.2188 21.2266 13.1746 21.2659 13.142 21.3143L12.2228 22.6114C12.0343 22.8867 11.7812 23.1117 11.4856 23.2666C11.19 23.4215 10.861 23.5016 10.5273 23.5ZM6.37043 7.11745C5.94403 7.11205 5.52078 7.19121 5.12515 7.35034C4.72951 7.50948 4.36934 7.74544 4.06543 8.0446C3.76153 8.34375 3.51992 8.70017 3.35457 9.09325C3.18923 9.48633 3.10342 9.90828 3.1021 10.3347V16.4118C3.09932 16.8403 3.1822 17.2651 3.34585 17.6612C3.5095 18.0573 3.75063 18.4166 4.05509 18.7182C4.35954 19.0199 4.72119 19.2576 5.11879 19.4175C5.51639 19.5774 5.94193 19.6563 6.37043 19.6495H7.61649C7.92129 19.648 8.22188 19.7207 8.49234 19.8612C8.7628 20.0018 8.99501 20.206 9.16895 20.4563L10.078 21.6922C10.1286 21.7644 10.1959 21.8235 10.274 21.8643C10.3522 21.9052 10.4391 21.9267 10.5273 21.9271C10.6156 21.9267 10.7024 21.9052 10.7806 21.8643C10.8588 21.8235 10.9261 21.7644 10.9767 21.6922L11.8857 20.3951C12.0664 20.156 12.3015 19.9637 12.5715 19.834C12.8416 19.7043 13.1387 19.641 13.4382 19.6495H14.7353C15.5886 19.6495 16.4069 19.3105 17.0103 18.7072C17.6136 18.1038 17.9526 17.2855 17.9526 16.4322V10.3347C17.9499 9.48227 17.6101 8.66551 17.0073 8.06274C16.4045 7.45997 15.5878 7.12014 14.7353 7.11745H6.37043ZM6.96282 12.5C6.77294 12.5 6.58732 12.5563 6.42943 12.6618C6.27155 12.7673 6.14849 12.9172 6.07583 13.0927C6.00316 13.2681 5.98415 13.4611 6.02119 13.6474C6.05824 13.8336 6.14968 14.0047 6.28395 14.1389C6.41821 14.2732 6.58928 14.3646 6.77552 14.4017C6.96175 14.4387 7.15479 14.4197 7.33022 14.3471C7.50565 14.2744 7.6556 14.1513 7.76109 13.9934C7.86659 13.8356 7.92289 13.6499 7.92289 13.4601C7.92024 13.2063 7.81823 12.9636 7.63876 12.7841C7.45928 12.6046 7.21662 12.5026 6.96282 12.5ZM10.5376 12.5C10.3495 12.4964 10.1646 12.5481 10.0057 12.6486C9.84679 12.7492 9.72092 12.8942 9.6437 13.0657C9.56648 13.2371 9.54132 13.4275 9.57134 13.6131C9.60136 13.7988 9.68523 13.9715 9.81255 14.1099C9.93988 14.2483 10.105 14.3463 10.2875 14.3916C10.47 14.437 10.6618 14.4277 10.8391 14.365C11.0164 14.3024 11.1714 14.189 11.2848 14.039C11.3983 13.889 11.4652 13.709 11.4772 13.5213C11.4841 13.3922 11.4651 13.2631 11.4213 13.1414C11.3775 13.0197 11.3099 12.908 11.2224 12.8129C11.1348 12.7177 11.0291 12.641 10.9115 12.5873C10.7939 12.5336 10.6668 12.5039 10.5376 12.5ZM14.1021 12.5C13.9122 12.5 13.7266 12.5563 13.5687 12.6618C13.4108 12.7673 13.2878 12.9172 13.2151 13.0927C13.1424 13.2681 13.1234 13.4611 13.1605 13.6474C13.1975 13.8336 13.2889 14.0047 13.4232 14.1389C13.5575 14.2732 13.7285 14.3646 13.9148 14.4017C14.101 14.4387 14.2941 14.4197 14.4695 14.3471C14.6449 14.2744 14.7949 14.1513 14.9004 13.9934C15.0059 13.8356 15.0622 13.6499 15.0622 13.4601C15.0595 13.2063 14.9575 12.9636 14.778 12.7841C14.5985 12.6046 14.3559 12.5026 14.1021 12.5Z" fill=""/>
</svg>
