<svg width="16" height="17" viewBox="0 0 16 17" fill="none" xmlns="http://www.w3.org/2000/svg">
<path d="M8 8.5C8.79565 8.5 9.55871 8.18393 10.1213 7.62132C10.6839 7.05871 11 6.29565 11 5.5C11 4.70435 10.6839 3.94129 10.1213 3.37868C9.55871 2.81607 8.79565 2.5 8 2.5C7.20435 2.5 6.44129 2.81607 5.87868 3.37868C5.31607 3.94129 5 4.70435 5 5.5C5 6.29565 5.31607 7.05871 5.87868 7.62132C6.44129 8.18393 7.20435 8.5 8 8.5ZM10 5.5C10 6.03043 9.78929 6.53914 9.41421 6.91421C9.03914 7.28929 8.53043 7.5 8 7.5C7.46957 7.5 6.96086 7.28929 6.58579 6.91421C6.21071 6.53914 6 6.03043 6 5.5C6 4.96957 6.21071 4.46086 6.58579 4.08579C6.96086 3.71071 7.46957 3.5 8 3.5C8.53043 3.5 9.03914 3.71071 9.41421 4.08579C9.78929 4.46086 10 4.96957 10 5.5ZM14 13.5C14 14.5 13 14.5 13 14.5H3C3 14.5 2 14.5 2 13.5C2 12.5 3 9.5 8 9.5C13 9.5 14 12.5 14 13.5ZM13 13.496C12.999 13.25 12.846 12.51 12.168 11.832C11.516 11.18 10.289 10.5 8 10.5C5.71 10.5 4.484 11.18 3.832 11.832C3.154 12.51 3.002 13.25 3 13.496H13Z" fill="#1B84FF"/>
</svg>
