<svg width="16" height="17" viewBox="0 0 16 17" fill="none" xmlns="http://www.w3.org/2000/svg">
<g clipPath="url(#clip0_9027_28048)">
<path d="M3.65398 1.64299C3.59495 1.56705 3.52043 1.50454 3.43538 1.45962C3.35034 1.41469 3.2567 1.38837 3.1607 1.38241C3.0647 1.37646 2.96853 1.39099 2.87858 1.42506C2.78863 1.45912 2.70695 1.51194 2.63898 1.57999L1.60498 2.61499C1.12198 3.09899 0.943983 3.78399 1.15498 4.38499C2.03072 6.87258 3.45528 9.13109 5.32298 10.993C7.18491 12.8607 9.44341 14.2852 11.931 15.161C12.532 15.372 13.217 15.194 13.701 14.711L14.735 13.677C14.803 13.609 14.8559 13.5273 14.8899 13.4374C14.924 13.3474 14.9385 13.2513 14.9326 13.1553C14.9266 13.0593 14.9003 12.9656 14.8554 12.8806C14.8104 12.7955 14.7479 12.721 14.672 12.662L12.365 10.868C12.2839 10.8051 12.1895 10.7614 12.089 10.7403C11.9885 10.7191 11.8846 10.7211 11.785 10.746L9.59498 11.293C9.30266 11.3661 8.9964 11.3622 8.70603 11.2817C8.41565 11.2013 8.15105 11.047 7.93798 10.834L5.48198 8.37699C5.26875 8.16403 5.11431 7.89947 5.0337 7.60909C4.95308 7.31871 4.94905 7.0124 5.02198 6.71999L5.56998 4.52999C5.59489 4.43039 5.59685 4.32643 5.57572 4.22596C5.55458 4.12548 5.51091 4.03112 5.44798 3.94999L3.65398 1.64299ZM1.88398 0.825992C2.05898 0.650942 2.26921 0.515123 2.50072 0.427553C2.73223 0.339984 2.97973 0.302669 3.22676 0.318085C3.4738 0.333502 3.71474 0.401297 3.93356 0.516969C4.15239 0.632641 4.34411 0.793544 4.49598 0.988992L6.28998 3.29499C6.61898 3.71799 6.73498 4.26899 6.60498 4.78899L6.05798 6.97899C6.0297 7.09242 6.03123 7.21124 6.06242 7.3239C6.09361 7.43657 6.1534 7.53925 6.23598 7.62199L8.69298 10.079C8.77582 10.1617 8.87868 10.2216 8.99153 10.2528C9.10439 10.284 9.22341 10.2855 9.33698 10.257L11.526 9.70999C11.7826 9.64583 12.0504 9.64085 12.3093 9.69542C12.5681 9.74999 12.8111 9.86269 13.02 10.025L15.326 11.819C16.155 12.464 16.231 13.689 15.489 14.43L14.455 15.464C13.715 16.204 12.609 16.529 11.578 16.166C8.93917 15.2375 6.54325 13.7268 4.56798 11.746C2.58727 9.77101 1.07659 7.37545 0.147983 4.73699C-0.214017 3.70699 0.110983 2.59999 0.850983 1.85999L1.88498 0.825992H1.88398ZM12.646 0.960992C12.6924 0.914429 12.7476 0.877486 12.8083 0.85228C12.8691 0.827073 12.9342 0.814098 13 0.814098C13.0658 0.814098 13.1309 0.827073 13.1916 0.85228C13.2524 0.877486 13.3075 0.914429 13.354 0.960992L15.854 3.46099C15.9005 3.50744 15.9375 3.56261 15.9627 3.62336C15.9879 3.6841 16.0009 3.74922 16.0009 3.81499C16.0009 3.88076 15.9879 3.94588 15.9627 4.00663C15.9375 4.06737 15.9005 4.12255 15.854 4.16899L13.354 6.66899C13.2601 6.76288 13.1328 6.81562 13 6.81562C12.8672 6.81562 12.7399 6.76288 12.646 6.66899C12.5521 6.57511 12.4994 6.44777 12.4994 6.31499C12.4994 6.18222 12.5521 6.05488 12.646 5.96099L14.293 4.31499H9.49998C9.36737 4.31499 9.2402 4.26231 9.14643 4.16855C9.05266 4.07478 8.99998 3.9476 8.99998 3.81499C8.99998 3.68238 9.05266 3.55521 9.14643 3.46144C9.2402 3.36767 9.36737 3.31499 9.49998 3.31499H14.293L12.646 1.66899C12.5994 1.62255 12.5625 1.56737 12.5373 1.50663C12.5121 1.44588 12.4991 1.38076 12.4991 1.31499C12.4991 1.24922 12.5121 1.1841 12.5373 1.12336C12.5625 1.06261 12.5994 1.00744 12.646 0.960992Z" fill="#78829D"/>
</g>
<defs>
<clipPath id="clip0_9027_28048">
<rect width="16" height="16" fill="white" transform="translate(0 0.314941)"/>
</clipPath>
</defs>
</svg>
