<svg width="16" height="17" viewBox="0 0 16 17" fill="none" xmlns="http://www.w3.org/2000/svg">
<path d="M11.086 9.76097L11.39 9.45897L10.684 8.74963L10.3813 9.05163L11.086 9.76097ZM12.4093 9.3323L13.6833 10.025L14.16 9.1463L12.8866 8.4543L12.4093 9.3323ZM13.928 11.401L12.9813 12.343L13.686 13.0516L14.6326 12.1103L13.928 11.401ZM12.404 12.6456C11.4373 12.7363 8.93729 12.6556 6.22929 9.96363L5.52395 10.6723C8.47862 13.6103 11.2913 13.7543 12.4973 13.6416L12.404 12.6456ZM6.22929 9.96363C3.64862 7.39697 3.22062 5.23897 3.16729 4.3023L2.16862 4.35897C2.23529 5.53763 2.76529 7.92963 5.52395 10.6723L6.22929 9.96363ZM7.14595 5.84363L7.33729 5.65297L6.63329 4.9443L6.44195 5.1343L7.14595 5.84363ZM7.48929 3.22963L6.64929 2.10697L5.84862 2.70697L6.68862 3.82897L7.48929 3.22963ZM3.82195 1.8623L2.77529 2.9023L3.48062 3.61163L4.52662 2.57163L3.82195 1.8623ZM6.79395 5.48897C6.44062 5.1343 6.44062 5.1343 6.44062 5.13563H6.43929L6.43729 5.1383C6.40581 5.17042 6.37746 5.20547 6.35262 5.24297C6.31662 5.2963 6.27729 5.3663 6.24395 5.45497C6.16277 5.68384 6.14255 5.92991 6.18529 6.16897C6.27462 6.74563 6.67195 7.50763 7.68929 8.51963L8.39462 7.8103C7.44195 6.86363 7.21529 6.28763 7.17329 6.01563C7.15329 5.8863 7.17395 5.8223 7.17995 5.80763C7.18329 5.7983 7.18462 5.79763 7.17995 5.80363C7.17407 5.81288 7.16738 5.82158 7.15995 5.82963L7.15329 5.8363C7.15113 5.83837 7.14891 5.84037 7.14662 5.8423L6.79395 5.48897ZM7.68929 8.51963C8.70729 9.53163 9.47329 9.9263 10.0506 10.0143C10.346 10.0596 10.584 10.0236 10.7646 9.9563C10.8656 9.91891 10.9601 9.86581 11.0446 9.79897C11.0561 9.78937 11.0672 9.77937 11.078 9.76897L11.0826 9.76497L11.0846 9.76297L11.0853 9.76163C11.0853 9.76163 11.086 9.76097 10.7333 9.4063C10.38 9.05163 10.382 9.05097 10.382 9.05097L10.3833 9.04963L10.3846 9.0483L10.3886 9.04497L10.3953 9.0383C10.4033 9.03111 10.4118 9.02443 10.4206 9.0183C10.4273 9.01363 10.4253 9.01563 10.416 9.01963C10.3993 9.02563 10.334 9.0463 10.2026 9.0263C9.92662 8.98363 9.34662 8.75697 8.39462 7.8103L7.68929 8.51963ZM6.64929 2.1063C5.96929 1.19963 4.63329 1.05563 3.82195 1.8623L4.52662 2.57163C4.88129 2.21897 5.51062 2.25563 5.84862 2.70697L6.64929 2.1063ZM3.16795 4.30297C3.15462 4.0723 3.26062 3.83097 3.48062 3.6123L2.77462 2.90297C2.41662 3.25897 2.13462 3.76297 2.16862 4.35897L3.16795 4.30297ZM12.9813 12.343C12.7986 12.5256 12.6013 12.6283 12.4046 12.6463L12.4973 13.6416C12.9873 13.5956 13.388 13.349 13.6866 13.0523L12.9813 12.343ZM7.33729 5.65297C7.99395 5.0003 8.04262 3.96897 7.48995 3.2303L6.68929 3.82963C6.95795 4.18897 6.91795 4.6603 6.63262 4.94497L7.33729 5.65297ZM13.684 10.0256C14.2286 10.3216 14.3133 11.019 13.9286 11.4016L14.634 12.1103C15.5273 11.2216 15.252 9.73963 14.1606 9.14697L13.684 10.0256ZM11.39 9.45963C11.646 9.20497 12.058 9.1423 12.41 9.33297L12.8873 8.45497C12.1646 8.06163 11.2686 8.1703 10.6846 8.7503L11.39 9.45963Z" fill="#1B84FF"/>
</svg>
