<svg width="162" height="162" viewBox="0 0 162 162" fill="none" xmlns="http://www.w3.org/2000/svg">
<g id="Frame">
<path id="Vector" d="M49.4506 17.2168C48.1726 17.2168 46.927 17.6668 46.0468 18.5452C45.1648 19.42 44.7148 20.6746 44.7148 21.949V140.123C44.7148 141.397 45.1648 142.643 46.0468 143.525C46.927 144.407 48.1726 144.857 49.4506 144.857H112.667C113.941 144.857 115.198 144.407 116.069 143.525C116.953 142.643 117.401 141.397 117.401 140.123V21.949C117.401 20.6746 116.951 19.42 116.069 18.5452C115.198 17.665 113.941 17.2168 112.667 17.2168H102.907C102.139 17.2168 101.455 17.6758 101.165 18.3868L99.7102 21.949C99.2404 23.1136 98.8678 23.6842 98.2738 24.0694C97.6942 24.4636 96.6628 24.7912 94.6378 24.7912H67.4758C65.4526 24.7912 64.4212 24.4618 63.8398 24.0694C63.2494 23.686 62.8732 23.1154 62.4052 21.949L60.9526 18.3868C60.6682 17.683 59.9842 17.2168 59.2264 17.2168H49.4506Z" fill="#9EDCFF"/>
<path id="Vector_2" d="M49.1644 13.1758H112.945C117.549 13.1758 121.184 16.8298 121.184 21.4252V140.647C121.184 145.24 117.548 148.898 112.945 148.898H49.1644C44.5636 148.898 40.924 145.24 40.924 140.647V21.4252C40.9258 16.8316 44.5636 13.1758 49.1644 13.1758ZM49.1644 9.44434C42.5584 9.44434 37.1836 14.8192 37.1836 21.4252V140.647C37.1836 147.256 42.5584 152.627 49.1644 152.627H112.945C119.555 152.627 124.935 147.256 124.935 140.647V21.4252C124.935 14.8192 119.555 9.44434 112.945 9.44434H49.1644Z" fill="#7E94B5"/>
<path id="Vector_3" d="M75.0222 17.2168C73.98 17.2168 73.1484 18.0484 73.1484 19.0906C73.1484 20.131 73.98 20.9662 75.0222 20.9662H88.0344C89.0658 20.9662 89.91 20.131 89.91 19.0906C89.91 18.0484 89.0658 17.2168 88.0344 17.2168H75.0222Z" fill="#B5B5C3"/>
</g>
</svg>
