<svg width="13" height="13" viewBox="0 0 13 13" fill="none" xmlns="http://www.w3.org/2000/svg">
<path d="M0.132567 12.2265C0.0475727 12.3117 -0.000113196 12.4271 2.01786e-07 12.5474C0.0001136 12.6677 0.0480169 12.7831 0.133172 12.8681C0.218327 12.9531 0.333759 13.0007 0.454073 13.0006C0.574387 13.0005 0.689728 12.9526 0.774723 12.8675L0.132567 12.2265ZM3.58824 10.0509C3.6708 9.96535 3.71646 9.85077 3.71537 9.73186C3.71428 9.61296 3.66654 9.49924 3.58241 9.41519C3.49829 9.33115 3.38452 9.28351 3.26562 9.28253C3.14671 9.28155 3.03218 9.32732 2.94668 9.40997L3.58824 10.0509ZM8.59124 2.55789L10.4548 4.42389L11.0964 3.78294L9.2328 1.91694L8.59124 2.55789ZM4.84836 10.6725L2.35895 8.18068L1.718 8.82223L4.20681 11.3129L4.84836 10.6725ZM9.70625 7.88682L8.5471 8.32217L8.86637 9.17113L10.0255 8.73637L9.70625 7.88682ZM4.70747 4.46864L5.12772 3.32279L4.27574 3.01018L3.8561 4.15663L4.70747 4.46864ZM2.89831 6.1351C3.32883 6.01658 3.65596 5.93314 3.92382 5.74085L3.39353 5.00437C3.28953 5.07995 3.15348 5.12409 2.65765 5.26075L2.89831 6.1351ZM3.8561 4.15663C3.67894 4.64036 3.62331 4.77218 3.53986 4.87013L4.23039 5.45848C4.44384 5.20754 4.55328 4.88767 4.70747 4.46864L3.8561 4.15663ZM3.92382 5.74085C4.0369 5.65922 4.13969 5.56429 4.23039 5.45848L3.53986 4.87013C3.49667 4.92061 3.44753 4.96568 3.39353 5.00437L3.92382 5.74085ZM8.5471 8.32217C8.13049 8.47939 7.81304 8.59065 7.56392 8.80591L8.1577 9.49281C8.25445 9.40816 8.38566 9.35132 8.86637 9.17113L8.5471 8.32217ZM7.77192 10.3702C7.90797 9.87496 7.95211 9.73951 8.02709 9.6349L7.29 9.10643C7.09832 9.37429 7.01548 9.70081 6.89697 10.1301L7.77192 10.3702ZM7.56392 8.80651C7.46112 8.89479 7.36921 8.99638 7.29 9.10643L8.0277 9.6349C8.06518 9.5823 8.10872 9.53453 8.1577 9.49281L7.56392 8.80651ZM2.35895 8.18008C1.96833 7.78886 1.70349 7.52281 1.53177 7.30694C1.35883 7.08986 1.3413 6.99614 1.34069 6.95442L0.433691 6.95986C0.43611 7.31178 0.610858 7.60685 0.821887 7.8717C1.03352 8.13775 1.3425 8.44613 1.7174 8.82102L2.35895 8.18008ZM2.65765 5.26075C2.14611 5.40224 1.72526 5.51713 1.41023 5.64411C1.0958 5.76988 0.7977 5.94039 0.622347 6.24515L1.40902 6.69744C1.42958 6.66116 1.49125 6.5886 1.74763 6.4858C2.00401 6.38301 2.3656 6.28203 2.89831 6.1351L2.65765 5.26075ZM1.34069 6.95381C1.34016 6.86387 1.36354 6.77539 1.40841 6.69744L0.622347 6.24515C0.497242 6.46246 0.432135 6.70912 0.433691 6.95986L1.34069 6.95381ZM4.20681 11.3129C4.58412 11.6902 4.89431 12.0022 5.16097 12.2144C5.42763 12.4273 5.72452 12.6026 6.07886 12.6032L6.08007 11.6962C6.03774 11.6962 5.94402 11.6787 5.72634 11.5051C5.50866 11.3322 5.24139 11.0661 4.84836 10.6725L4.20681 11.3129ZM6.89757 10.1295C6.74943 10.6665 6.64845 11.0305 6.54505 11.2887C6.44105 11.5475 6.36789 11.6091 6.33161 11.6297L6.78087 12.4176C7.08865 12.2422 7.25977 11.9423 7.38675 11.6261C7.51373 11.3092 7.62983 10.8854 7.77192 10.3702L6.89757 10.1295ZM6.07886 12.6032C6.32495 12.6032 6.56682 12.5397 6.78087 12.4176L6.33161 11.6297C6.25501 11.6735 6.16828 11.6964 6.08007 11.6962L6.07886 12.6032ZM10.4548 4.42389C11.0982 5.06726 11.5432 5.5141 11.8153 5.88295C12.0838 6.24454 12.1146 6.43743 12.082 6.5886L12.9684 6.78028C13.0833 6.24938 12.8717 5.78439 12.5446 5.34298C12.2217 4.90762 11.7186 4.40515 11.0964 3.78294L10.4548 4.42389ZM10.0255 8.73516C10.8485 8.42618 11.5148 8.17706 11.9883 7.91402C12.469 7.64797 12.8535 7.31178 12.9684 6.78028L12.082 6.5886C12.0493 6.73976 11.9417 6.90302 11.5481 7.1207C11.1472 7.34382 10.5576 7.56634 9.70625 7.88621L10.0255 8.73516ZM9.2328 1.91694C8.60636 1.2899 8.10086 0.78259 7.66369 0.457279C7.21986 0.128341 6.75185 -0.0851065 6.21853 0.0328034L6.41445 0.918035C6.56561 0.884778 6.7585 0.915012 7.12251 1.1859C7.49317 1.46103 7.94365 1.90908 8.59124 2.55789L9.2328 1.91694ZM5.12711 3.32219C5.44275 2.46175 5.66285 1.86494 5.88355 1.45982C6.10123 1.06074 6.26328 0.951896 6.41445 0.918035L6.21914 0.0328034C5.68582 0.150109 5.35144 0.540723 5.0872 1.02567C4.82659 1.50456 4.5811 2.17816 4.27574 3.01018L5.12711 3.32219ZM0.773514 12.8675L3.58824 10.0509L2.94668 9.40997L0.131963 12.2265L0.773514 12.8675Z" fill="#1B84FF"/>
</svg>
