<svg width="20" height="21" viewBox="0 0 20 21" fill="none" xmlns="http://www.w3.org/2000/svg">
<rect y="0.49968" width="20" height="20.0007" rx="10" fill="#1B84FF"/>
<g clip-path="url(#clip0_409_31784)">
<path d="M4.13257 15.7265C4.04757 15.8117 3.99989 15.9271 4 16.0474C4.00011 16.1677 4.04802 16.2831 4.13317 16.3681C4.21833 16.4531 4.33376 16.5008 4.45407 16.5006C4.57439 16.5005 4.68973 16.4526 4.77472 16.3675L4.13257 15.7265ZM7.58824 13.5509C7.6708 13.4654 7.71646 13.3508 7.71537 13.2319C7.71428 13.113 7.66654 12.9993 7.58241 12.9152C7.49829 12.8312 7.38452 12.7835 7.26562 12.7825C7.14671 12.7816 7.03218 12.8273 6.94668 12.91L7.58824 13.5509ZM12.5912 6.05791L14.4548 7.92391L15.0964 7.28296L13.2328 5.41696L12.5912 6.05791ZM8.84836 14.1725L6.35895 11.6807L5.718 12.3222L8.20681 14.8129L8.84836 14.1725ZM13.7062 11.3868L12.5471 11.8222L12.8664 12.6711L14.0255 12.2364L13.7062 11.3868ZM8.70747 7.96865L9.12772 6.82281L8.27574 6.5102L7.8561 7.65664L8.70747 7.96865ZM6.89831 9.63511C7.32883 9.5166 7.65596 9.43315 7.92382 9.24087L7.39353 8.50439C7.28953 8.57997 7.15348 8.62411 6.65765 8.76076L6.89831 9.63511ZM7.8561 7.65664C7.67894 8.14038 7.62331 8.27219 7.53986 8.37015L8.23039 8.95849C8.44384 8.70755 8.55328 8.38768 8.70747 7.96865L7.8561 7.65664ZM7.92382 9.24087C8.0369 9.15924 8.13969 9.06431 8.23039 8.95849L7.53986 8.37015C7.49667 8.42062 7.44753 8.46569 7.39353 8.50439L7.92382 9.24087ZM12.5471 11.8222C12.1305 11.9794 11.813 12.0907 11.5639 12.3059L12.1577 12.9928C12.2544 12.9082 12.3857 12.8513 12.8664 12.6711L12.5471 11.8222ZM11.7719 13.8702C11.908 13.375 11.9521 13.2395 12.0271 13.1349L11.29 12.6064C11.0983 12.8743 11.0155 13.2008 10.897 13.6301L11.7719 13.8702ZM11.5639 12.3065C11.4611 12.3948 11.3692 12.4964 11.29 12.6064L12.0277 13.1349C12.0652 13.0823 12.1087 13.0345 12.1577 12.9928L11.5639 12.3065ZM6.35895 11.6801C5.96833 11.2889 5.70349 11.0228 5.53177 10.807C5.35883 10.5899 5.3413 10.4962 5.34069 10.4544L4.43369 10.4599C4.43611 10.8118 4.61086 11.1069 4.82189 11.3717C5.03352 11.6378 5.3425 11.9461 5.7174 12.321L6.35895 11.6801ZM6.65765 8.76076C6.14611 8.90226 5.72526 9.01714 5.41023 9.14412C5.0958 9.26989 4.7977 9.44041 4.62235 9.74516L5.40902 10.1975C5.42958 10.1612 5.49125 10.0886 5.74763 9.98582C6.00401 9.88302 6.3656 9.78205 6.89831 9.63511L6.65765 8.76076ZM5.34069 10.4538C5.34016 10.3639 5.36354 10.2754 5.40841 10.1975L4.62235 9.74516C4.49724 9.96247 4.43213 10.2091 4.43369 10.4599L5.34069 10.4538ZM8.20681 14.8129C8.58412 15.1902 8.89431 15.5022 9.16097 15.7144C9.42763 15.9273 9.72452 16.1026 10.0789 16.1032L10.0801 15.1962C10.0377 15.1962 9.94402 15.1787 9.72634 15.0052C9.50866 14.8322 9.24139 14.5662 8.84836 14.1725L8.20681 14.8129ZM10.8976 13.6295C10.7494 14.1665 10.6485 14.5305 10.5451 14.7887C10.4411 15.0475 10.3679 15.1092 10.3316 15.1297L10.7809 15.9176C11.0886 15.7422 11.2598 15.4423 11.3867 15.1261C11.5137 14.8092 11.6298 14.3854 11.7719 13.8702L10.8976 13.6295ZM10.0789 16.1032C10.325 16.1032 10.5668 16.0397 10.7809 15.9176L10.3316 15.1297C10.255 15.1735 10.1683 15.1964 10.0801 15.1962L10.0789 16.1032ZM14.4548 7.92391C15.0982 8.56727 15.5432 9.01412 15.8153 9.38297C16.0838 9.74456 16.1146 9.93744 16.082 10.0886L16.9684 10.2803C17.0833 9.74939 16.8717 9.28441 16.5446 8.843C16.2217 8.40764 15.7186 7.90516 15.0964 7.28296L14.4548 7.92391ZM14.0255 12.2352C14.8485 11.9262 15.5148 11.6771 15.9883 11.414C16.469 11.148 16.8535 10.8118 16.9684 10.2803L16.082 10.0886C16.0493 10.2398 15.9417 10.403 15.5481 10.6207C15.1472 10.8438 14.5576 11.0664 13.7062 11.3862L14.0255 12.2352ZM13.2328 5.41696C12.6064 4.78992 12.1009 4.2826 11.6637 3.95729C11.2199 3.62836 10.7518 3.41491 10.2185 3.53282L10.4144 4.41805C10.5656 4.38479 10.7585 4.41503 11.1225 4.68592C11.4932 4.96104 11.9436 5.4091 12.5912 6.05791L13.2328 5.41696ZM9.12711 6.8222C9.44275 5.96176 9.66285 5.36496 9.88355 4.95983C10.1012 4.56075 10.2633 4.45191 10.4144 4.41805L10.2191 3.53282C9.68582 3.65012 9.35144 4.04074 9.0872 4.52568C8.82659 5.00458 8.5811 5.67817 8.27574 6.5102L9.12711 6.8222ZM4.77351 16.3675L7.58824 13.5509L6.94668 12.91L4.13196 15.7265L4.77351 16.3675Z" fill="white"/>
</g>
<defs>
<clipPath id="clip0_409_31784">
<rect width="14" height="14.0006" fill="white" transform="translate(3 3.49998)"/>
</clipPath>
</defs>
</svg>
