<svg width="34" height="34" viewBox="0 0 34 34" fill="none" xmlns="http://www.w3.org/2000/svg">
<path d="M21.8068 5.74234L21.0041 6.63429L21.0041 6.63429L21.8068 5.74234ZM27.4151 10.7898L26.6123 11.6817L26.6123 11.6817L27.4151 10.7898ZM30.6767 14.3846L29.5805 14.8728L29.5805 14.8729L30.6767 14.3846ZM4.49322 29.5066L5.34175 28.6581L5.34175 28.6581L4.49322 29.5066ZM29.5071 29.5066L28.6586 28.6581L28.6586 28.6581L29.5071 29.5066ZM19.8335 29.9663H14.1668V32.3663H19.8335V29.9663ZM4.0335 19.833V14.1663H1.6335V19.833H4.0335ZM29.9668 19.2138V19.833H32.3668V19.2138H29.9668ZM21.0041 6.63429L26.6123 11.6817L28.2179 9.89783L22.6096 4.85039L21.0041 6.63429ZM32.3668 19.2138C32.3668 16.8341 32.3911 15.2845 31.7729 13.8964L29.5805 14.8729C29.9426 15.686 29.9668 16.6221 29.9668 19.2138H32.3668ZM26.6123 11.6817C28.5387 13.4155 29.2183 14.0597 29.5805 14.8728L31.7729 13.8964C31.1547 12.5084 29.9867 11.4898 28.2179 9.89783L26.6123 11.6817ZM14.209 4.03301C16.4603 4.03301 17.2756 4.05153 18 4.3295L18.8598 2.08881C17.6237 1.61448 16.2786 1.63301 14.209 1.63301V4.03301ZM22.6096 4.85039C21.0788 3.47265 20.0957 2.56308 18.8598 2.08881L18 4.3295C18.7245 4.60754 19.3393 5.13599 21.0041 6.63429L22.6096 4.85039ZM14.1668 29.9663C11.4616 29.9663 9.55342 29.9638 8.10885 29.7696C6.69881 29.58 5.91149 29.2278 5.34175 28.6581L3.6447 30.3551C4.73468 31.4451 6.11288 31.9228 7.78906 32.1482C9.43072 32.3689 11.5295 32.3663 14.1668 32.3663V29.9663ZM1.6335 19.833C1.6335 22.4704 1.63095 24.5691 1.85166 26.2108C2.07702 27.887 2.55471 29.2652 3.6447 30.3551L5.34175 28.6581C4.77201 28.0883 4.41984 27.301 4.23026 25.891C4.03604 24.4464 4.0335 22.5382 4.0335 19.833H1.6335ZM19.8335 32.3663C22.4709 32.3663 24.5696 32.3689 26.2113 32.1482C27.8874 31.9228 29.2656 31.4451 30.3556 30.3551L28.6586 28.6581C28.0888 29.2278 27.3015 29.58 25.8915 29.7696C24.4469 29.9638 22.5387 29.9663 19.8335 29.9663V32.3663ZM29.9668 19.833C29.9668 22.5382 29.9643 24.4464 29.7701 25.891C29.5805 27.301 29.2283 28.0883 28.6586 28.6581L30.3556 30.3551C31.4456 29.2652 31.9233 27.887 32.1487 26.2108C32.3694 24.5691 32.3668 22.4704 32.3668 19.833H29.9668ZM4.0335 14.1663C4.0335 11.4611 4.03604 9.55293 4.23026 8.10836C4.41984 6.69832 4.77201 5.91101 5.34175 5.34126L3.6447 3.64421C2.55471 4.73419 2.07702 6.11239 1.85166 7.78857C1.63095 9.43023 1.6335 11.529 1.6335 14.1663H4.0335ZM14.209 1.63301C11.5575 1.63301 9.44859 1.63048 7.80032 1.85108C6.11844 2.07618 4.73562 2.55329 3.6447 3.64421L5.34175 5.34126C5.91056 4.77246 6.70028 4.4197 8.11869 4.22987C9.57072 4.03553 11.4899 4.03301 14.209 4.03301V1.63301Z" fill="white"/>
<path d="M8.5 20.542H19.8333" stroke="white" stroke-width="2.4" stroke-linecap="round"/>
<path d="M8.5 25.5H16.2917" stroke="white" stroke-width="2.4" stroke-linecap="round"/>
<path d="M18.4165 3.54199V7.08366C18.4165 10.4228 18.4165 12.0923 19.4538 13.1297C20.4912 14.167 22.1607 14.167 25.4998 14.167H31.1665" stroke="white" stroke-width="2.4"/>
</svg>
