<svg width="25" height="25" viewBox="0 0 25 25" fill="none" xmlns="http://www.w3.org/2000/svg">
<path d="M14.9196 5.74166C15.7985 5.74155 16.6573 6.00365 17.3844 6.49398C16.6573 6.00365 15.7985 5.74155 14.9196 5.74166ZM17.3844 6.49398C17.9833 6.89371 18.4739 7.43362 18.813 8.06611C19.1522 8.6986 19.3294 9.40423 19.3291 10.1208V16.6783V10.0984C19.3294 9.38178 19.1522 8.67614 18.813 8.04365C18.4739 7.41117 17.9833 6.87125 17.3844 6.47152V6.49398ZM19.2839 1.25023H9.96734C8.97235 1.24837 8.00582 1.5799 7.22409 2.1912C6.44235 2.80249 5.89112 3.65781 5.65955 4.6188H14.897C16.3654 4.62177 17.7729 5.2024 18.8112 6.23358C19.8495 7.26477 20.4342 8.6625 20.4372 10.1208V16.5099C21.3837 16.2725 22.2234 15.7284 22.8234 14.9637C23.4235 14.199 23.7495 13.2574 23.75 12.2879V5.60692C23.7456 5.02941 23.6264 4.45844 23.3995 3.92672C23.1725 3.39501 22.8421 2.91299 22.4272 2.50828C22.0124 2.10358 21.5212 1.78413 20.9818 1.56826C20.4424 1.35238 19.8654 1.24431 19.2839 1.25023ZM19.2839 10.1208V16.8018C19.2839 17.9632 18.8193 19.0771 17.9924 19.8983C17.1654 20.7196 16.0439 21.181 14.8744 21.181H13.4837C13.2833 21.1784 13.0854 21.2252 12.9078 21.3173C12.7302 21.4094 12.5784 21.5439 12.4661 21.7087L11.4485 23.1347C11.3151 23.3247 11.1376 23.4798 10.9309 23.5869C10.7242 23.6941 10.4945 23.75 10.2613 23.75C10.0282 23.75 9.79845 23.6941 9.59175 23.5869C9.38505 23.4798 9.20747 23.3247 9.07412 23.1347L8.05653 21.7087C7.94419 21.5439 7.7924 21.4094 7.61478 21.3173C7.43717 21.2252 7.2393 21.1784 7.03894 21.181H5.65955C4.49098 21.178 3.37113 20.7157 2.54482 19.8951C1.71852 19.0745 1.25298 17.9623 1.25 16.8018V10.0984C1.25893 8.94174 1.72709 7.83536 2.55275 7.01959C3.37842 6.20382 4.49488 5.74459 5.65955 5.74166H14.9761C16.1319 5.75636 17.2356 6.22115 18.0498 7.03597C18.8639 7.85079 19.3233 8.95049 19.3291 10.0984L19.2839 10.1208ZM7.37814 13.6017C7.37814 13.3929 7.31581 13.1888 7.19902 13.0153C7.08224 12.8417 6.91625 12.7064 6.72205 12.6265C6.52784 12.5466 6.31415 12.5257 6.10798 12.5665C5.90182 12.6072 5.71244 12.7077 5.5638 12.8553C5.41517 13.0029 5.31394 13.191 5.27293 13.3958C5.23193 13.6005 5.25297 13.8127 5.33341 14.0056C5.41386 14.1985 5.55008 14.3633 5.72486 14.4793C5.89964 14.5953 6.10512 14.6572 6.31533 14.6572C6.59629 14.6542 6.86491 14.5421 7.0636 14.3448C7.26228 14.1475 7.3752 13.8807 7.37814 13.6017ZM11.3128 13.6017C11.3128 13.3924 11.2502 13.1879 11.1329 13.0141C11.0156 12.8403 10.8489 12.705 10.6541 12.6255C10.4592 12.546 10.2449 12.5257 10.0385 12.5674C9.83199 12.609 9.64265 12.7107 9.49447 12.8594C9.34629 13.0081 9.24597 13.1972 9.20625 13.4027C9.16652 13.6082 9.18919 13.8208 9.27137 14.0134C9.35355 14.2061 9.49153 14.3701 9.66779 14.4848C9.84405 14.5994 10.0506 14.6594 10.2613 14.6572C10.5412 14.6542 10.8087 14.5417 11.0055 14.3441C11.2024 14.1464 11.3128 13.8797 11.3128 13.6017ZM15.2701 13.6017C15.2701 13.3929 15.2078 13.1888 15.091 13.0153C14.9742 12.8417 14.8082 12.7064 14.614 12.6265C14.4198 12.5466 14.2061 12.5257 13.9999 12.5665C13.7938 12.6072 13.6044 12.7077 13.4558 12.8553C13.3071 13.0029 13.2059 13.191 13.1649 13.3958C13.1239 13.6005 13.1449 13.8127 13.2254 14.0056C13.3058 14.1985 13.442 14.3633 13.6168 14.4793C13.7916 14.5953 13.9971 14.6572 14.2073 14.6572C14.4902 14.6572 14.7617 14.5463 14.9628 14.3487C15.1639 14.1511 15.2784 13.8826 15.2814 13.6017H15.2701Z" fill=""/>
</svg>
