<svg width="16" height="16" viewBox="0 0 16 16" fill="none" xmlns="http://www.w3.org/2000/svg">
<g id="tab-tablet" clip-path="url(#clip0_1428_9357)">
<path id="tab-tablet_2" d="M10.7715 15.246H5.22853C4.0518 15.2604 2.91745 14.8072 2.07462 13.9859C1.23178 13.1646 0.74937 12.0424 0.733337 10.8657V5.72833C0.751143 4.5528 1.23433 3.4323 2.07698 2.61246C2.91962 1.79262 4.05296 1.34036 5.22853 1.35481H7.25644C7.39154 1.35298 7.52193 1.40446 7.61935 1.49809C7.71678 1.59171 7.77339 1.71995 7.77693 1.85502C7.77339 1.9901 7.71678 2.11834 7.61935 2.21196C7.52193 2.30559 7.39154 2.35707 7.25644 2.35524H5.22853C4.77935 2.34988 4.33351 2.43306 3.91648 2.60002C3.49944 2.76698 3.11938 3.01445 2.79799 3.3283C2.47661 3.64216 2.22019 4.01624 2.04339 4.4292C1.86659 4.84216 1.77286 5.2859 1.76757 5.73509V10.8725C1.77286 11.3216 1.86659 11.7654 2.04339 12.1783C2.22019 12.5913 2.47661 12.9654 2.79799 13.2792C3.11938 13.5931 3.49944 13.8406 3.91648 14.0075C4.33351 14.1745 4.77935 14.2577 5.22853 14.2523H10.7715C11.2207 14.2577 11.6665 14.1745 12.0835 14.0075C12.5006 13.8406 12.8806 13.5931 13.202 13.2792C13.5234 12.9654 13.7798 12.5913 13.9566 12.1783C14.1334 11.7654 14.2271 11.3216 14.2324 10.8725V5.72833C14.247 5.60137 14.3077 5.48419 14.4031 5.39913C14.4984 5.31406 14.6218 5.26705 14.7496 5.26705C14.8773 5.26705 15.0007 5.31406 15.096 5.39913C15.1914 5.48419 15.2521 5.60137 15.2667 5.72833V10.8657C15.2506 12.0424 14.7682 13.1646 13.9254 13.9859C13.0826 14.8072 11.9482 15.2604 10.7715 15.246ZM10.5349 6.4043L10.9337 6.09335C10.9589 6.07705 10.9882 6.06838 11.0182 6.06838C11.0482 6.06838 11.0775 6.07705 11.1027 6.09335L11.5015 6.4043C11.6748 6.53953 11.8823 6.62381 12.1008 6.64769C12.3193 6.67157 12.5402 6.6341 12.7385 6.53949C12.939 6.45263 13.1098 6.30913 13.2298 6.12661C13.3499 5.94409 13.4141 5.73049 13.4145 5.51202V1.89558C13.4092 1.58958 13.2834 1.29802 13.0645 1.08415C12.8456 0.870288 12.5511 0.751369 12.2451 0.753195H9.80484C9.4988 0.751369 9.20437 0.870288 8.98545 1.08415C8.76652 1.29802 8.64075 1.58958 8.63541 1.89558V5.54581C8.63753 5.76391 8.70239 5.97677 8.82227 6.15898C8.94214 6.34119 9.11194 6.48502 9.31138 6.57329C9.4724 6.64801 9.64761 6.6872 9.82512 6.6882C10.0865 6.67422 10.336 6.57443 10.5349 6.4043ZM10.2848 5.30923L9.89272 5.62017C9.87011 5.63322 9.84446 5.64009 9.81836 5.64009C9.79226 5.64009 9.76661 5.63322 9.744 5.62017C9.7215 5.60883 9.70262 5.59143 9.68948 5.56993C9.67634 5.54844 9.66947 5.52369 9.66965 5.4985V1.89558C9.66965 1.85973 9.68389 1.82534 9.70924 1.79999C9.7346 1.77463 9.76898 1.76039 9.80484 1.76039H12.2316C12.2674 1.76039 12.3018 1.77463 12.3272 1.79999C12.3525 1.82534 12.3668 1.85973 12.3668 1.89558V5.54581C12.3669 5.57101 12.3601 5.59575 12.3469 5.61725C12.3338 5.63875 12.3149 5.65615 12.2924 5.66749C12.2698 5.68054 12.2442 5.68741 12.2181 5.68741C12.1919 5.68741 12.1663 5.68054 12.1437 5.66749L11.7516 5.3633C11.5413 5.2016 11.2835 5.11393 11.0182 5.11393C10.7529 5.11393 10.4951 5.2016 10.2848 5.3633V5.30923ZM9.25731 8.29701C9.25642 8.23043 9.24244 8.16468 9.21614 8.1035C9.18984 8.04233 9.15175 7.98694 9.10405 7.94049C9.05634 7.89404 8.99995 7.85744 8.9381 7.83278C8.87625 7.80813 8.81015 7.7959 8.74357 7.79679H5.29613C5.22899 7.79499 5.16216 7.80656 5.09952 7.83081C5.03689 7.85506 4.9797 7.89151 4.93127 7.93805C4.88284 7.98459 4.84415 8.04029 4.81743 8.10191C4.79071 8.16353 4.7765 8.22985 4.77563 8.29701C4.77651 8.36447 4.79068 8.43111 4.81731 8.4931C4.84395 8.55509 4.88253 8.61123 4.93087 8.65831C4.9792 8.70539 5.03634 8.74248 5.09901 8.76748C5.16168 8.79247 5.22866 8.80488 5.29613 8.80399H8.74357C8.87866 8.804 9.00831 8.7508 9.10447 8.65591C9.20062 8.56103 9.25553 8.43209 9.25731 8.29701ZM10.8188 10.8387C10.8179 10.7721 10.8039 10.7063 10.7776 10.6451C10.7513 10.584 10.7132 10.5286 10.6655 10.4821C10.6178 10.4357 10.5614 10.3991 10.4996 10.3744C10.4377 10.3498 10.3716 10.3375 10.3051 10.3384H4.84323C4.77665 10.3375 4.71055 10.3498 4.6487 10.3744C4.58684 10.3991 4.53046 10.4357 4.48275 10.4821C4.43504 10.5286 4.39695 10.584 4.37066 10.6451C4.34436 10.7063 4.33037 10.7721 4.32949 10.8387C4.33127 10.9737 4.38618 11.1027 4.48233 11.1976C4.57848 11.2924 4.70814 11.3456 4.84323 11.3456H10.3051C10.4401 11.3456 10.5698 11.2924 10.666 11.1976C10.7621 11.1027 10.817 10.9737 10.8188 10.8387Z" fill="#939393"/>
</g>
<defs>
<clipPath id="clip0_1428_9357">
<rect width="16" height="16" fill="white"/>
</clipPath>
</defs>
</svg>
