<svg width="18" height="18" viewBox="0 0 18 18" fill="none" xmlns="http://www.w3.org/2000/svg">
<g id="material-symbols:translate-rounded">
<path id="Vector" d="M11.3063 14.2125L10.6688 16.0313C10.6188 16.1688 10.5313 16.2813 10.4063 16.3688C10.2813 16.4563 10.1438 16.5 9.99375 16.5C9.74375 16.5 9.54075 16.3968 9.38475 16.1903C9.22875 15.9838 9.2005 15.7558 9.3 15.5063L12.15 7.96875C12.2125 7.83125 12.3063 7.71875 12.4313 7.63125C12.5563 7.54375 12.6938 7.5 12.8438 7.5H13.4063C13.5563 7.5 13.6938 7.54375 13.8188 7.63125C13.9438 7.71875 14.0375 7.83125 14.1 7.96875L16.95 15.525C17.05 15.7625 17.025 15.9845 16.875 16.191C16.725 16.3975 16.525 16.5005 16.275 16.5C16.1125 16.5 15.972 16.4563 15.8535 16.3688C15.735 16.2813 15.6443 16.1625 15.5813 16.0125L14.9438 14.2125H11.3063ZM6.7875 10.4813L3.525 13.725C3.3875 13.8625 3.21575 13.9345 3.00975 13.941C2.80375 13.9475 2.6255 13.8755 2.475 13.725C2.3375 13.5875 2.26875 13.4125 2.26875 13.2C2.26875 12.9875 2.3375 12.8125 2.475 12.675L5.7375 9.4125C5.3 8.975 4.903 8.475 4.5465 7.9125C4.19 7.35 3.862 6.7125 3.5625 6H5.1375C5.3875 6.4875 5.6375 6.9125 5.8875 7.275C6.1375 7.6375 6.4375 8 6.7875 8.3625C7.2 7.95 7.62825 7.37175 8.07225 6.62775C8.51625 5.88375 8.8505 5.1745 9.075 4.5H1.5C1.2875 4.5 1.1095 4.428 0.966003 4.284C0.822503 4.14 0.750503 3.962 0.750003 3.75C0.749503 3.538 0.821503 3.36 0.966003 3.216C1.1105 3.072 1.2885 3 1.5 3H6V2.25C6 2.0375 6.072 1.8595 6.216 1.716C6.36 1.5725 6.538 1.5005 6.75 1.5C6.962 1.4995 7.14025 1.5715 7.28475 1.716C7.42925 1.8605 7.501 2.0385 7.5 2.25V3H12C12.2125 3 12.3908 3.072 12.5348 3.216C12.6788 3.36 12.7505 3.538 12.75 3.75C12.7495 3.962 12.6775 4.14025 12.534 4.28475C12.3905 4.42925 12.2125 4.501 12 4.5H10.575C10.3125 5.4 9.91875 6.325 9.39375 7.275C8.86875 8.225 8.35 8.95 7.8375 9.45L9.6375 11.2875L9.075 12.825L6.7875 10.4813ZM11.775 12.9H14.475L13.125 9.075L11.775 12.9Z" fill="#939393"/>
</g>
</svg>
