<svg width="25" height="25" viewBox="0 0 25 25" fill="none" xmlns="http://www.w3.org/2000/svg">
<path d="M14.3919 6.80264C14.4004 7.8113 14.1093 8.79978 13.5556 9.64289C13.0018 10.486 12.2103 11.1458 11.2813 11.5387C10.3522 11.9315 9.32751 12.0398 8.33687 11.8498C7.34623 11.6599 6.43427 11.1801 5.71651 10.4714C4.99875 9.76269 4.50748 8.85689 4.30494 7.86874C4.1024 6.88059 4.1977 5.85456 4.57876 4.92062C4.95983 3.98668 5.60952 3.18685 6.44553 2.62245C7.28154 2.05805 8.26625 1.75447 9.27494 1.75018C9.94306 1.74451 10.6057 1.87086 11.2249 2.12197C11.8441 2.37307 12.4075 2.744 12.883 3.21344C13.3584 3.68289 13.7365 4.24162 13.9954 4.85755C14.2543 5.47349 14.3891 6.1345 14.3919 6.80264ZM9.27494 13.1451C5.10397 13.1451 1.75 15.4026 1.75 18.1975C1.75 20.9925 5.13622 23.25 9.27494 23.25C13.4137 23.25 16.7999 20.9818 16.7999 18.1975C16.7999 15.4133 13.4782 13.1451 9.27494 13.1451ZM17.2191 3.90016C16.6277 3.90084 16.0439 4.03303 15.5099 4.28716C15.9605 5.38059 16.1064 6.57565 15.9323 7.74538C15.7582 8.91511 15.2704 10.0158 14.5209 10.9306C15.0072 11.3734 15.5942 11.6909 16.2309 11.8555C16.8677 12.02 17.535 12.0267 18.175 11.875C18.8149 11.7232 19.4082 11.4176 19.9032 10.9846C20.3983 10.5516 20.7802 10.0044 21.0159 9.39034C21.2516 8.77631 21.3338 8.11406 21.2556 7.46104C21.1773 6.80802 20.9408 6.18396 20.5667 5.64302C20.1927 5.10208 19.6922 4.6606 19.1088 4.35688C18.5255 4.05316 17.8768 3.89639 17.2191 3.90016ZM17.2191 12.9946C16.616 12.9941 16.0145 13.0553 15.4239 13.1773C16.3119 13.6803 17.0572 14.4012 17.5894 15.272C18.1217 16.1428 18.4234 17.1349 18.4661 18.1545C18.4699 19.2035 18.1591 20.2295 17.5739 21.1C20.7343 20.9818 23.2498 19.2295 23.2498 17.0796C23.2498 14.9296 20.5516 13.0376 17.2191 13.0376V12.9946Z" fill=""/>
</svg>
