<svg width="24" height="25" viewBox="0 0 24 25" fill="none" xmlns="http://www.w3.org/2000/svg">
<path d="M9.28297 12.3695C13.51 12.3695 16.8648 14.6861 16.865 17.6527C16.865 20.6195 13.5101 22.9369 9.28297 22.9369C5.05582 22.9369 1.74 20.6195 1.74 17.6527C1.74018 14.6861 5.05594 12.3695 9.28297 12.3695ZM9.28297 13.8236C5.977 13.8236 3.19432 15.578 3.1941 17.6527C3.1941 19.7275 5.97688 21.4828 9.28297 21.4828C12.5794 21.4828 15.3621 19.7275 15.3621 17.6527C15.3619 15.578 12.5889 13.8236 9.28297 13.8236ZM16.5838 12.9027C19.7734 12.9028 22.2742 14.677 22.2742 16.9457C22.274 18.8652 20.4514 20.4839 17.8338 20.9008H17.7175C17.5451 20.9006 17.3782 20.8397 17.2468 20.7279C17.1154 20.616 17.0284 20.4607 17.0007 20.2904C16.9726 20.1005 17.0193 19.9071 17.1316 19.7513C17.2438 19.5957 17.4123 19.4897 17.6013 19.4564C19.4724 19.1656 20.8199 18.109 20.8201 16.9457C20.8201 15.5399 18.8814 14.3569 16.5838 14.3568C16.3909 14.3568 16.2055 14.2803 16.0691 14.1439C15.9328 14.0076 15.8562 13.8221 15.8562 13.6293C15.8563 13.4366 15.9329 13.2519 16.0691 13.1156C16.2055 12.9792 16.3909 12.9027 16.5838 12.9027ZM16.3318 3.92419C17.3808 3.90115 18.396 4.29647 19.1541 5.02185C19.9122 5.74731 20.3516 6.74429 20.3748 7.79333C20.3978 8.84236 20.0025 9.85746 19.2771 10.6156C18.5517 11.3737 17.5547 11.8132 16.5056 11.8363L16.3894 11.8265C16.2056 11.8416 16.0205 11.8416 15.8367 11.8265C15.7418 11.8134 15.6507 11.7813 15.5681 11.7328C15.4855 11.6842 15.4129 11.6199 15.3552 11.5433C15.2976 11.4668 15.256 11.3793 15.2322 11.2865C15.2084 11.1937 15.2029 11.0972 15.2166 11.0023C15.2477 10.8128 15.3503 10.6423 15.5037 10.5267C15.6572 10.4112 15.85 10.3597 16.0408 10.3822C16.1763 10.3922 16.3125 10.3922 16.448 10.3822C16.7763 10.3745 17.0998 10.3019 17.4002 10.1693C17.7007 10.0365 17.9731 9.84546 18.2 9.60779C18.4267 9.37018 18.6038 9.08983 18.7224 8.78357C18.841 8.47734 18.8989 8.15093 18.8914 7.82263C18.8837 7.49421 18.8112 7.17002 18.6785 6.86951C18.5457 6.56895 18.3546 6.29755 18.117 6.07068C17.8793 5.84382 17.5991 5.66588 17.2927 5.54724C16.9865 5.42871 16.6601 5.37168 16.3318 5.37927C16.139 5.37927 15.9535 5.30266 15.8172 5.16638C15.6808 5.03002 15.6043 4.84458 15.6043 4.65173C15.6043 4.45904 15.681 4.27438 15.8172 4.13806C15.9535 4.0017 16.1389 3.92419 16.3318 3.92419ZM9.28297 1.93689C9.91956 1.93689 10.5503 2.06242 11.1384 2.30603C11.7264 2.54964 12.2607 2.90676 12.7107 3.35681C13.1608 3.80687 13.5179 4.34107 13.7615 4.92908C14.0051 5.51722 14.1306 6.14794 14.1306 6.78455C14.1306 7.74332 13.8459 8.68072 13.3132 9.47791C12.7807 10.2749 12.024 10.8962 11.1384 11.2631C10.2528 11.6299 9.27785 11.7263 8.33766 11.5394C7.39732 11.3524 6.53319 10.8902 5.85524 10.2123C5.17728 9.53433 4.71514 8.67021 4.52809 7.72986C4.34116 6.78965 4.43761 5.81472 4.80445 4.92908C5.17134 4.04354 5.79266 3.28686 6.58961 2.75427C7.3868 2.22161 8.3242 1.93689 9.28297 1.93689ZM10.6423 3.52283C10.0058 3.25818 9.30506 3.18765 8.62867 3.32068C7.95227 3.45377 7.33042 3.78482 6.84156 4.27087C6.35267 4.75706 6.01846 5.37733 5.8816 6.0531C5.74478 6.72874 5.81094 7.42975 6.07203 8.06775C6.33323 8.70584 6.77796 9.25222 7.34938 9.63806C7.9208 10.0239 8.59349 10.2319 9.28297 10.2357C10.2103 10.2357 11.1 9.86905 11.7576 9.21521C12.4152 8.5612 12.7876 7.67295 12.7927 6.74548C12.7927 6.05618 12.5883 5.38238 12.2058 4.80896C11.8232 4.23541 11.279 3.78756 10.6423 3.52283Z" fill=""/>
</svg>
