<svg width="32" height="32" viewBox="0 0 32 32" fill="none" xmlns="http://www.w3.org/2000/svg">
<path opacity="0.3" d="M4 13.8897C4 9.62566 4 7.49366 4.504 6.77632C5.00667 6.06032 7.01067 5.37366 11.02 4.00166L11.784 3.74033C13.8733 3.02433 14.9173 2.66699 16 2.66699C17.0813 2.66699 18.1267 3.02433 20.216 3.74033L20.98 4.00166C24.9893 5.37366 26.9933 6.06032 27.496 6.77632C28 7.49366 28 9.62699 28 13.8897V15.9883C28 23.5057 22.348 27.155 18.8013 28.703C17.84 29.123 17.36 29.3337 16 29.3337C14.64 29.3337 14.16 29.123 13.1987 28.703C9.652 27.1537 4 23.507 4 15.9883V13.8897Z" fill="#F1416C"/>
<path d="M16.0003 9.66699C16.2655 9.66699 16.5199 9.77235 16.7074 9.95989C16.895 10.1474 17.0003 10.4018 17.0003 10.667V16.0003C17.0003 16.2655 16.895 16.5199 16.7074 16.7074C16.5199 16.895 16.2655 17.0003 16.0003 17.0003C15.7351 17.0003 15.4808 16.895 15.2932 16.7074C15.1057 16.5199 15.0003 16.2655 15.0003 16.0003V10.667C15.0003 10.4018 15.1057 10.1474 15.2932 9.95989C15.4808 9.77235 15.7351 9.66699 16.0003 9.66699ZM16.0003 21.3337C16.3539 21.3337 16.6931 21.1932 16.9431 20.9431C17.1932 20.6931 17.3337 20.3539 17.3337 20.0003C17.3337 19.6467 17.1932 19.3076 16.9431 19.0575C16.6931 18.8075 16.3539 18.667 16.0003 18.667C15.6467 18.667 15.3076 18.8075 15.0575 19.0575C14.8075 19.3076 14.667 19.6467 14.667 20.0003C14.667 20.3539 14.8075 20.6931 15.0575 20.9431C15.3076 21.1932 15.6467 21.3337 16.0003 21.3337Z" fill="#F1416C"/>
</svg>
