<svg width="526" height="85" viewBox="0 0 526 85" fill="none" xmlns="http://www.w3.org/2000/svg">
<g filter="url(#filter0_di_1317_5005)">
<path d="M485.889 66.2974C481.516 66.2974 477.569 65.364 474.049 63.4974C470.583 61.6307 467.836 58.964 465.809 55.4974C463.836 52.0307 462.849 47.9774 462.849 43.3374C462.849 38.7507 463.863 34.724 465.889 31.2574C467.916 27.7374 470.689 25.044 474.209 23.1774C477.729 21.3107 481.676 20.3773 486.049 20.3773C490.423 20.3773 494.369 21.3107 497.889 23.1774C501.409 25.044 504.183 27.7374 506.209 31.2574C508.236 34.724 509.249 38.7507 509.249 43.3374C509.249 47.924 508.209 51.9774 506.129 55.4974C504.103 58.964 501.303 61.6307 497.729 63.4974C494.209 65.364 490.263 66.2974 485.889 66.2974ZM485.889 54.4574C488.503 54.4574 490.716 53.4974 492.529 51.5774C494.396 49.6574 495.329 46.9107 495.329 43.3374C495.329 39.764 494.423 37.0174 492.609 35.0974C490.849 33.1774 488.663 32.2174 486.049 32.2174C483.383 32.2174 481.169 33.1774 479.409 35.0974C477.649 36.964 476.769 39.7107 476.769 43.3374C476.769 46.9107 477.623 49.6574 479.329 51.5774C481.089 53.4974 483.276 54.4574 485.889 54.4574Z" fill="#FCFCFC"/>
</g>
<g filter="url(#filter1_di_1317_5005)">
<path d="M456.704 9.49738C457.808 9.49738 458.704 10.3928 458.704 11.4974V18.4574C458.704 19.5619 457.808 20.4574 456.704 20.4574H445.824C444.719 20.4574 443.824 21.3528 443.824 22.4574V63.6574C443.824 64.7619 442.928 65.6574 441.824 65.6574H432.144C431.039 65.6574 430.144 64.7619 430.144 63.6574V22.4574C430.144 21.3528 429.248 20.4574 428.144 20.4574H417.264C416.159 20.4574 415.264 19.5619 415.264 18.4574V11.4974C415.264 10.3928 416.159 9.49738 417.264 9.49738H456.704Z" fill="#FCFCFC"/>
</g>
<g filter="url(#filter2_di_1317_5005)">
<path d="M394.134 42.6174C394.134 43.342 394.108 44.0837 394.057 44.8425C393.988 45.856 393.127 46.6174 392.111 46.6174H365.094C363.928 46.6174 362.988 47.6174 363.259 48.7506C363.679 50.5104 364.45 51.9327 365.574 53.0174C367.174 54.4574 369.12 55.1774 371.414 55.1774C374.352 55.1774 376.52 54.1102 377.917 51.9759C378.344 51.3239 379.033 50.8574 379.812 50.8574H390.521C391.826 50.8574 392.783 52.0909 392.302 53.3036C391.518 55.2776 390.422 57.1022 389.014 58.7774C387.094 61.124 384.667 62.964 381.734 64.2974C378.8 65.6307 375.52 66.2974 371.894 66.2974C367.52 66.2974 363.627 65.364 360.214 63.4974C356.8 61.6307 354.134 58.964 352.214 55.4974C350.294 52.0307 349.334 47.9774 349.334 43.3374C349.334 38.6974 350.267 34.644 352.134 31.1774C354.054 27.7107 356.72 25.044 360.134 23.1774C363.547 21.3107 367.467 20.3773 371.894 20.3773C376.214 20.3773 380.054 21.284 383.414 23.0974C386.774 24.9107 389.387 27.4974 391.254 30.8574C393.174 34.2174 394.134 38.1374 394.134 42.6174ZM378.134 39.0174C379.238 39.0174 380.168 38.1089 379.917 37.0333C379.581 35.5929 378.853 34.3876 377.734 33.4174C376.134 32.0307 374.134 31.3374 371.734 31.3374C369.44 31.3374 367.494 32.004 365.894 33.3374C364.86 34.2289 364.088 35.3708 363.578 36.7631C363.157 37.913 364.117 39.0174 365.341 39.0174H378.134Z" fill="#FCFCFC"/>
</g>
<g filter="url(#filter3_di_1317_5005)">
<path d="M324.326 20.5374C329.873 20.5374 334.273 22.2174 337.526 25.5774C340.833 28.9374 342.486 33.604 342.486 39.5774V63.6574C342.486 64.7619 341.591 65.6574 340.486 65.6574H330.886C329.782 65.6574 328.886 64.7619 328.886 63.6574V41.4174C328.886 38.5374 328.113 36.324 326.566 34.7774C325.073 33.1774 322.993 32.3774 320.326 32.3774C317.66 32.3774 315.553 33.1774 314.006 34.7774C312.513 36.324 311.766 38.5374 311.766 41.4174V63.6574C311.766 64.7619 310.871 65.6574 309.766 65.6574H300.166C299.062 65.6574 298.166 64.7619 298.166 63.6574V41.4174C298.166 38.5374 297.393 36.324 295.846 34.7774C294.353 33.1774 292.273 32.3774 289.606 32.3774C286.94 32.3774 284.833 33.1774 283.286 34.7774C281.793 36.324 281.046 38.5374 281.046 41.4174V63.6574C281.046 64.7619 280.151 65.6574 279.046 65.6574H269.366C268.262 65.6574 267.366 64.7619 267.366 63.6574V23.0174C267.366 21.9128 268.262 21.0174 269.366 21.0174H279.654C280.423 21.0174 281.046 21.6406 281.046 22.4093C281.046 23.7502 282.943 24.4597 284.028 23.6712C284.781 23.124 285.6 22.6394 286.486 22.2174C288.726 21.0974 291.26 20.5374 294.086 20.5374C297.446 20.5374 300.433 21.2574 303.046 22.6974C304.711 23.5964 306.147 24.7344 307.355 26.1116C308.355 27.252 310.302 27.3062 311.343 26.2029C312.555 24.9182 313.976 23.803 315.606 22.8574C318.273 21.3107 321.18 20.5374 324.326 20.5374Z" fill="#FCFCFC"/>
</g>
<g filter="url(#filter4_di_1317_5005)">
<path d="M236.749 66.2974C232.375 66.2974 228.429 65.364 224.909 63.4974C221.442 61.6307 218.695 58.964 216.669 55.4974C214.695 52.0307 213.709 47.9774 213.709 43.3374C213.709 38.7507 214.722 34.724 216.749 31.2574C218.775 27.7374 221.549 25.044 225.069 23.1774C228.589 21.3107 232.535 20.3773 236.909 20.3773C241.282 20.3773 245.229 21.3107 248.749 23.1774C252.269 25.044 255.042 27.7374 257.069 31.2574C259.095 34.724 260.109 38.7507 260.109 43.3374C260.109 47.924 259.069 51.9774 256.989 55.4974C254.962 58.964 252.162 61.6307 248.589 63.4974C245.069 65.364 241.122 66.2974 236.749 66.2974ZM236.749 54.4574C239.362 54.4574 241.575 53.4974 243.389 51.5774C245.255 49.6574 246.189 46.9107 246.189 43.3374C246.189 39.764 245.282 37.0174 243.469 35.0974C241.709 33.1774 239.522 32.2174 236.909 32.2174C234.242 32.2174 232.029 33.1774 230.269 35.0974C228.509 36.964 227.629 39.7107 227.629 43.3374C227.629 46.9107 228.482 49.6574 230.189 51.5774C231.949 53.4974 234.135 54.4574 236.749 54.4574Z" fill="#FCFCFC"/>
</g>
<g filter="url(#filter5_di_1317_5005)">
<path d="M165.271 43.3374C165.271 38.6974 166.205 34.644 168.071 31.1774C169.991 27.7107 172.631 25.044 175.991 23.1774C179.405 21.3107 183.298 20.3773 187.671 20.3773C193.271 20.3773 197.938 21.844 201.671 24.7774C204.869 27.2542 207.134 30.5867 208.469 34.7748C208.856 35.9923 207.901 37.1774 206.623 37.1774H195.958C195.114 37.1774 194.381 36.636 193.991 35.8875C192.662 33.3341 190.476 32.0574 187.431 32.0574C184.925 32.0574 182.925 33.044 181.431 35.0174C179.938 36.9374 179.191 39.7107 179.191 43.3374C179.191 46.964 179.938 49.764 181.431 51.7374C182.925 53.6573 184.925 54.6174 187.431 54.6174C190.476 54.6174 192.662 53.3406 193.991 50.7872C194.381 50.0387 195.114 49.4974 195.958 49.4974H206.612C207.894 49.4974 208.849 50.6888 208.452 51.9068C207.116 56.0023 204.855 59.3058 201.671 61.8174C197.885 64.804 193.218 66.2974 187.671 66.2974C183.298 66.2974 179.405 65.364 175.991 63.4974C172.631 61.6307 169.991 58.964 168.071 55.4974C166.205 52.0307 165.271 47.9774 165.271 43.3374Z" fill="#FCFCFC"/>
</g>
<g filter="url(#filter6_di_1317_5005)">
<path d="M156.077 6.45737C157.182 6.45737 158.077 7.3528 158.077 8.45737V63.6574C158.077 64.7619 157.182 65.6574 156.077 65.6574H146.397C145.293 65.6574 144.397 64.7619 144.397 63.6574V8.45737C144.397 7.3528 145.293 6.45737 146.397 6.45737H156.077Z" fill="#FCFCFC"/>
</g>
<g filter="url(#filter7_di_1317_5005)">
<path d="M137.181 42.6174C137.181 43.342 137.155 44.0837 137.104 44.8425C137.035 45.856 136.174 46.6174 135.158 46.6174H108.14C106.975 46.6174 106.035 47.6174 106.306 48.7506C106.726 50.5104 107.497 51.9327 108.621 53.0174C110.221 54.4574 112.167 55.1774 114.461 55.1774C117.399 55.1774 119.567 54.1102 120.964 51.9759C121.39 51.3239 122.079 50.8574 122.859 50.8574H133.568C134.872 50.8574 135.83 52.0909 135.349 53.3036C134.565 55.2776 133.469 57.1022 132.061 58.7774C130.141 61.124 127.714 62.964 124.781 64.2974C121.847 65.6307 118.567 66.2974 114.941 66.2974C110.567 66.2974 106.674 65.364 103.261 63.4974C99.8473 61.6307 97.1806 58.964 95.2606 55.4974C93.3406 52.0307 92.3806 47.9774 92.3806 43.3374C92.3806 38.6974 93.314 34.644 95.1806 31.1774C97.1006 27.7107 99.7673 25.044 103.181 23.1774C106.594 21.3107 110.514 20.3773 114.941 20.3773C119.261 20.3773 123.101 21.284 126.461 23.0974C129.821 24.9107 132.434 27.4974 134.301 30.8574C136.221 34.2174 137.181 38.1374 137.181 42.6174ZM121.181 39.0174C122.285 39.0174 123.215 38.1089 122.964 37.0333C122.628 35.5929 121.9 34.3876 120.781 33.4174C119.181 32.0307 117.181 31.3374 114.781 31.3374C112.487 31.3374 110.541 32.004 108.941 33.3374C107.906 34.2289 107.135 35.3708 106.625 36.7632C106.204 37.913 107.164 39.0174 108.388 39.0174H121.181Z" fill="#FCFCFC"/>
</g>
<g filter="url(#filter8_di_1317_5005)">
<path d="M85.6518 9.49738C86.9612 9.49738 87.9174 10.7348 87.5871 12.0019L73.9899 64.1619C73.7602 65.0427 72.9648 65.6574 72.0545 65.6574H58.6131C57.69 65.6574 56.8869 65.0257 56.6694 64.1286L49.9896 36.5746C49.4976 34.5448 46.6148 34.533 46.1061 36.5588L39.1799 64.1444C38.9566 65.0338 38.1571 65.6574 37.2401 65.6574H23.7962C22.8809 65.6574 22.0825 65.0361 21.8575 64.1489L8.63177 11.9889C8.31129 10.725 9.26651 9.49738 10.5704 9.49738H20.9072C21.9017 9.49738 22.7451 10.2282 22.8868 11.2126L28.9501 53.3557C29.2736 55.6044 32.5005 55.6582 32.8988 53.4215L40.4263 11.1468C40.5962 10.1925 41.426 9.49738 42.3953 9.49738H54.0729C55.0474 9.49738 55.8801 10.1998 56.0443 11.1604L63.2284 53.1876C63.6123 55.4332 66.8515 55.3927 67.179 53.1382L73.2712 11.2098C73.414 10.2266 74.2569 9.49738 75.2504 9.49738H85.6518Z" fill="#FCFCFC"/>
</g>
<defs>
<filter id="filter0_di_1317_5005" x="454.849" y="14.3773" width="70.4001" height="69.92" filterUnits="userSpaceOnUse" color-interpolation-filters="sRGB">
<feFlood flood-opacity="0" result="BackgroundImageFix"/>
<feColorMatrix in="SourceAlpha" type="matrix" values="0 0 0 0 0 0 0 0 0 0 0 0 0 0 0 0 0 0 127 0" result="hardAlpha"/>
<feOffset dx="4" dy="6"/>
<feGaussianBlur stdDeviation="6"/>
<feComposite in2="hardAlpha" operator="out"/>
<feColorMatrix type="matrix" values="0 0 0 0 0 0 0 0 0 0 0 0 0 0 0 0 0 0 0.32 0"/>
<feBlend mode="normal" in2="BackgroundImageFix" result="effect1_dropShadow_1317_5005"/>
<feBlend mode="normal" in="SourceGraphic" in2="effect1_dropShadow_1317_5005" result="shape"/>
<feColorMatrix in="SourceAlpha" type="matrix" values="0 0 0 0 0 0 0 0 0 0 0 0 0 0 0 0 0 0 127 0" result="hardAlpha"/>
<feOffset dx="-2" dy="2"/>
<feGaussianBlur stdDeviation="1"/>
<feComposite in2="hardAlpha" operator="arithmetic" k2="-1" k3="1"/>
<feColorMatrix type="matrix" values="0 0 0 0 0.0235294 0 0 0 0 0.0313726 0 0 0 0 0.34902 0 0 0 0.4 0"/>
<feBlend mode="normal" in2="shape" result="effect2_innerShadow_1317_5005"/>
</filter>
<filter id="filter1_di_1317_5005" x="407.264" y="3.49738" width="67.4399" height="80.16" filterUnits="userSpaceOnUse" color-interpolation-filters="sRGB">
<feFlood flood-opacity="0" result="BackgroundImageFix"/>
<feColorMatrix in="SourceAlpha" type="matrix" values="0 0 0 0 0 0 0 0 0 0 0 0 0 0 0 0 0 0 127 0" result="hardAlpha"/>
<feOffset dx="4" dy="6"/>
<feGaussianBlur stdDeviation="6"/>
<feComposite in2="hardAlpha" operator="out"/>
<feColorMatrix type="matrix" values="0 0 0 0 0 0 0 0 0 0 0 0 0 0 0 0 0 0 0.32 0"/>
<feBlend mode="normal" in2="BackgroundImageFix" result="effect1_dropShadow_1317_5005"/>
<feBlend mode="normal" in="SourceGraphic" in2="effect1_dropShadow_1317_5005" result="shape"/>
<feColorMatrix in="SourceAlpha" type="matrix" values="0 0 0 0 0 0 0 0 0 0 0 0 0 0 0 0 0 0 127 0" result="hardAlpha"/>
<feOffset dx="-2" dy="2"/>
<feGaussianBlur stdDeviation="1"/>
<feComposite in2="hardAlpha" operator="arithmetic" k2="-1" k3="1"/>
<feColorMatrix type="matrix" values="0 0 0 0 0.0235294 0 0 0 0 0.0313726 0 0 0 0 0.34902 0 0 0 0.4 0"/>
<feBlend mode="normal" in2="shape" result="effect2_innerShadow_1317_5005"/>
</filter>
<filter id="filter2_di_1317_5005" x="341.334" y="14.3773" width="68.8" height="69.92" filterUnits="userSpaceOnUse" color-interpolation-filters="sRGB">
<feFlood flood-opacity="0" result="BackgroundImageFix"/>
<feColorMatrix in="SourceAlpha" type="matrix" values="0 0 0 0 0 0 0 0 0 0 0 0 0 0 0 0 0 0 127 0" result="hardAlpha"/>
<feOffset dx="4" dy="6"/>
<feGaussianBlur stdDeviation="6"/>
<feComposite in2="hardAlpha" operator="out"/>
<feColorMatrix type="matrix" values="0 0 0 0 0 0 0 0 0 0 0 0 0 0 0 0 0 0 0.32 0"/>
<feBlend mode="normal" in2="BackgroundImageFix" result="effect1_dropShadow_1317_5005"/>
<feBlend mode="normal" in="SourceGraphic" in2="effect1_dropShadow_1317_5005" result="shape"/>
<feColorMatrix in="SourceAlpha" type="matrix" values="0 0 0 0 0 0 0 0 0 0 0 0 0 0 0 0 0 0 127 0" result="hardAlpha"/>
<feOffset dx="-2" dy="2"/>
<feGaussianBlur stdDeviation="1"/>
<feComposite in2="hardAlpha" operator="arithmetic" k2="-1" k3="1"/>
<feColorMatrix type="matrix" values="0 0 0 0 0.0235294 0 0 0 0 0.0313726 0 0 0 0 0.34902 0 0 0 0.4 0"/>
<feBlend mode="normal" in2="shape" result="effect2_innerShadow_1317_5005"/>
</filter>
<filter id="filter3_di_1317_5005" x="259.366" y="14.5374" width="99.1201" height="69.12" filterUnits="userSpaceOnUse" color-interpolation-filters="sRGB">
<feFlood flood-opacity="0" result="BackgroundImageFix"/>
<feColorMatrix in="SourceAlpha" type="matrix" values="0 0 0 0 0 0 0 0 0 0 0 0 0 0 0 0 0 0 127 0" result="hardAlpha"/>
<feOffset dx="4" dy="6"/>
<feGaussianBlur stdDeviation="6"/>
<feComposite in2="hardAlpha" operator="out"/>
<feColorMatrix type="matrix" values="0 0 0 0 0 0 0 0 0 0 0 0 0 0 0 0 0 0 0.32 0"/>
<feBlend mode="normal" in2="BackgroundImageFix" result="effect1_dropShadow_1317_5005"/>
<feBlend mode="normal" in="SourceGraphic" in2="effect1_dropShadow_1317_5005" result="shape"/>
<feColorMatrix in="SourceAlpha" type="matrix" values="0 0 0 0 0 0 0 0 0 0 0 0 0 0 0 0 0 0 127 0" result="hardAlpha"/>
<feOffset dx="-2" dy="2"/>
<feGaussianBlur stdDeviation="1"/>
<feComposite in2="hardAlpha" operator="arithmetic" k2="-1" k3="1"/>
<feColorMatrix type="matrix" values="0 0 0 0 0.0235294 0 0 0 0 0.0313726 0 0 0 0 0.34902 0 0 0 0.4 0"/>
<feBlend mode="normal" in2="shape" result="effect2_innerShadow_1317_5005"/>
</filter>
<filter id="filter4_di_1317_5005" x="205.709" y="14.3773" width="70.3999" height="69.92" filterUnits="userSpaceOnUse" color-interpolation-filters="sRGB">
<feFlood flood-opacity="0" result="BackgroundImageFix"/>
<feColorMatrix in="SourceAlpha" type="matrix" values="0 0 0 0 0 0 0 0 0 0 0 0 0 0 0 0 0 0 127 0" result="hardAlpha"/>
<feOffset dx="4" dy="6"/>
<feGaussianBlur stdDeviation="6"/>
<feComposite in2="hardAlpha" operator="out"/>
<feColorMatrix type="matrix" values="0 0 0 0 0 0 0 0 0 0 0 0 0 0 0 0 0 0 0.32 0"/>
<feBlend mode="normal" in2="BackgroundImageFix" result="effect1_dropShadow_1317_5005"/>
<feBlend mode="normal" in="SourceGraphic" in2="effect1_dropShadow_1317_5005" result="shape"/>
<feColorMatrix in="SourceAlpha" type="matrix" values="0 0 0 0 0 0 0 0 0 0 0 0 0 0 0 0 0 0 127 0" result="hardAlpha"/>
<feOffset dx="-2" dy="2"/>
<feGaussianBlur stdDeviation="1"/>
<feComposite in2="hardAlpha" operator="arithmetic" k2="-1" k3="1"/>
<feColorMatrix type="matrix" values="0 0 0 0 0.0235294 0 0 0 0 0.0313726 0 0 0 0 0.34902 0 0 0 0.4 0"/>
<feBlend mode="normal" in2="shape" result="effect2_innerShadow_1317_5005"/>
</filter>
<filter id="filter5_di_1317_5005" x="157.271" y="14.3773" width="67.2847" height="69.92" filterUnits="userSpaceOnUse" color-interpolation-filters="sRGB">
<feFlood flood-opacity="0" result="BackgroundImageFix"/>
<feColorMatrix in="SourceAlpha" type="matrix" values="0 0 0 0 0 0 0 0 0 0 0 0 0 0 0 0 0 0 127 0" result="hardAlpha"/>
<feOffset dx="4" dy="6"/>
<feGaussianBlur stdDeviation="6"/>
<feComposite in2="hardAlpha" operator="out"/>
<feColorMatrix type="matrix" values="0 0 0 0 0 0 0 0 0 0 0 0 0 0 0 0 0 0 0.32 0"/>
<feBlend mode="normal" in2="BackgroundImageFix" result="effect1_dropShadow_1317_5005"/>
<feBlend mode="normal" in="SourceGraphic" in2="effect1_dropShadow_1317_5005" result="shape"/>
<feColorMatrix in="SourceAlpha" type="matrix" values="0 0 0 0 0 0 0 0 0 0 0 0 0 0 0 0 0 0 127 0" result="hardAlpha"/>
<feOffset dx="-2" dy="2"/>
<feGaussianBlur stdDeviation="1"/>
<feComposite in2="hardAlpha" operator="arithmetic" k2="-1" k3="1"/>
<feColorMatrix type="matrix" values="0 0 0 0 0.0235294 0 0 0 0 0.0313726 0 0 0 0 0.34902 0 0 0 0.4 0"/>
<feBlend mode="normal" in2="shape" result="effect2_innerShadow_1317_5005"/>
</filter>
<filter id="filter6_di_1317_5005" x="136.397" y="0.457367" width="37.6799" height="83.2" filterUnits="userSpaceOnUse" color-interpolation-filters="sRGB">
<feFlood flood-opacity="0" result="BackgroundImageFix"/>
<feColorMatrix in="SourceAlpha" type="matrix" values="0 0 0 0 0 0 0 0 0 0 0 0 0 0 0 0 0 0 127 0" result="hardAlpha"/>
<feOffset dx="4" dy="6"/>
<feGaussianBlur stdDeviation="6"/>
<feComposite in2="hardAlpha" operator="out"/>
<feColorMatrix type="matrix" values="0 0 0 0 0 0 0 0 0 0 0 0 0 0 0 0 0 0 0.32 0"/>
<feBlend mode="normal" in2="BackgroundImageFix" result="effect1_dropShadow_1317_5005"/>
<feBlend mode="normal" in="SourceGraphic" in2="effect1_dropShadow_1317_5005" result="shape"/>
<feColorMatrix in="SourceAlpha" type="matrix" values="0 0 0 0 0 0 0 0 0 0 0 0 0 0 0 0 0 0 127 0" result="hardAlpha"/>
<feOffset dx="-2" dy="2"/>
<feGaussianBlur stdDeviation="1"/>
<feComposite in2="hardAlpha" operator="arithmetic" k2="-1" k3="1"/>
<feColorMatrix type="matrix" values="0 0 0 0 0.0235294 0 0 0 0 0.0313726 0 0 0 0 0.34902 0 0 0 0.4 0"/>
<feBlend mode="normal" in2="shape" result="effect2_innerShadow_1317_5005"/>
</filter>
<filter id="filter7_di_1317_5005" x="84.3806" y="14.3773" width="68.8" height="69.92" filterUnits="userSpaceOnUse" color-interpolation-filters="sRGB">
<feFlood flood-opacity="0" result="BackgroundImageFix"/>
<feColorMatrix in="SourceAlpha" type="matrix" values="0 0 0 0 0 0 0 0 0 0 0 0 0 0 0 0 0 0 127 0" result="hardAlpha"/>
<feOffset dx="4" dy="6"/>
<feGaussianBlur stdDeviation="6"/>
<feComposite in2="hardAlpha" operator="out"/>
<feColorMatrix type="matrix" values="0 0 0 0 0 0 0 0 0 0 0 0 0 0 0 0 0 0 0.32 0"/>
<feBlend mode="normal" in2="BackgroundImageFix" result="effect1_dropShadow_1317_5005"/>
<feBlend mode="normal" in="SourceGraphic" in2="effect1_dropShadow_1317_5005" result="shape"/>
<feColorMatrix in="SourceAlpha" type="matrix" values="0 0 0 0 0 0 0 0 0 0 0 0 0 0 0 0 0 0 127 0" result="hardAlpha"/>
<feOffset dx="-2" dy="2"/>
<feGaussianBlur stdDeviation="1"/>
<feComposite in2="hardAlpha" operator="arithmetic" k2="-1" k3="1"/>
<feColorMatrix type="matrix" values="0 0 0 0 0.0235294 0 0 0 0 0.0313726 0 0 0 0 0.34902 0 0 0 0.4 0"/>
<feBlend mode="normal" in2="shape" result="effect2_innerShadow_1317_5005"/>
</filter>
<filter id="filter8_di_1317_5005" x="0.569336" y="3.49738" width="103.083" height="80.16" filterUnits="userSpaceOnUse" color-interpolation-filters="sRGB">
<feFlood flood-opacity="0" result="BackgroundImageFix"/>
<feColorMatrix in="SourceAlpha" type="matrix" values="0 0 0 0 0 0 0 0 0 0 0 0 0 0 0 0 0 0 127 0" result="hardAlpha"/>
<feOffset dx="4" dy="6"/>
<feGaussianBlur stdDeviation="6"/>
<feComposite in2="hardAlpha" operator="out"/>
<feColorMatrix type="matrix" values="0 0 0 0 0 0 0 0 0 0 0 0 0 0 0 0 0 0 0.32 0"/>
<feBlend mode="normal" in2="BackgroundImageFix" result="effect1_dropShadow_1317_5005"/>
<feBlend mode="normal" in="SourceGraphic" in2="effect1_dropShadow_1317_5005" result="shape"/>
<feColorMatrix in="SourceAlpha" type="matrix" values="0 0 0 0 0 0 0 0 0 0 0 0 0 0 0 0 0 0 127 0" result="hardAlpha"/>
<feOffset dx="-2" dy="2"/>
<feGaussianBlur stdDeviation="1"/>
<feComposite in2="hardAlpha" operator="arithmetic" k2="-1" k3="1"/>
<feColorMatrix type="matrix" values="0 0 0 0 0.0235294 0 0 0 0 0.0313726 0 0 0 0 0.34902 0 0 0 0.4 0"/>
<feBlend mode="normal" in2="shape" result="effect2_innerShadow_1317_5005"/>
</filter>
</defs>
</svg>
